<?xml version="1.0" standalone="no"?>
<!DOCTYPE svg PUBLIC "-//W3C//DTD SVG 1.1//EN" "http://www.w3.org/Graphics/SVG/1.1/DTD/svg11.dtd" >
<!--
2013-9-30: Created.
-->
<svg>
<metadata>
Created by iconfont
</metadata>
<defs>

<font id="iconfont" horiz-adv-x="1024" >
  <font-face
    font-family="iconfont"
    font-weight="500"
    font-stretch="normal"
    units-per-em="1024"
    ascent="896"
    descent="-128"
  />
    <missing-glyph />
    
    <glyph glyph-name="x" unicode="x" horiz-adv-x="1001"
d="M281 543q-27 -1 -53 -1h-83q-18 0 -36.5 -6t-32.5 -18.5t-23 -32t-9 -45.5v-76h912v41q0 16 -0.5 30t-0.5 18q0 13 -5 29t-17 29.5t-31.5 22.5t-49.5 9h-133v-97h-438v97zM955 310v-52q0 -23 0.5 -52t0.5 -58t-10.5 -47.5t-26 -30t-33 -16t-31.5 -4.5q-14 -1 -29.5 -0.5
t-29.5 0.5h-32l-45 128h-439l-44 -128h-29h-34q-20 0 -45 1q-25 0 -41 9.5t-25.5 23t-13.5 29.5t-4 30v167h911zM163 247q-12 0 -21 -8.5t-9 -21.5t9 -21.5t21 -8.5q13 0 22 8.5t9 21.5t-9 21.5t-22 8.5zM316 123q-8 -26 -14 -48q-5 -19 -10.5 -37t-7.5 -25t-3 -15t1 -14.5
t9.5 -10.5t21.5 -4h37h67h81h80h64h36q23 0 34 12t2 38q-5 13 -9.5 30.5t-9.5 34.5q-5 19 -11 39h-368zM336 498v228q0 11 2.5 23t10 21.5t20.5 15.5t34 6h188q31 0 51.5 -14.5t20.5 -52.5v-227h-327z" />
    

    
    <glyph glyph-name="houtui" unicode="&#58880;" d="M531.6803 445.8002h-6.3539200000000005c0 71.1414 0 126.9494 0 143.1818 0 53.5388-30.72 75.8436-68.5312 45.4236L104.9661 351.3587c-37.8112-30.4292-37.7856-80.1372 0.0584-110.5039l349.1471-280.1306c37.8399-30.3432 71.1547 0.4844 71.1547 45.5434 0 14.5111 0 74.5359 0 151.0339h52.885504000000005c152.6743 0 269.1236-65.9579 340.5445-193.2196 13.995-23.0943 28.673-18.0582 28.673 0C944.3871 190.8324 752.3512 445.8002 531.6803 445.8002z"  horiz-adv-x="1024" />

    
    <glyph glyph-name="fenxiang" unicode="&#59001;" d="M804.697 227.265c-47.48 0-89.569-22.716-116.276-57.783l-307.221 182.941c3.49 13.458 5.538 27.481 5.538 42.026 0 4.221-0.334 8.338-0.627 12.476l307.367 185.198c26.833-31.41 66.664-51.388 111.219-51.388 80.792 0 146.286 65.494 146.286 146.286s-65.494 146.286-146.286 146.286-146.286-65.494-146.286-146.286c0-16.029 2.654-31.389 7.419-45.829l-304.755-158.030c-29.592 47.083-81.837 78.472-141.521 78.472-92.327 0-167.184-74.856-167.184-167.184 0-92.327 74.856-167.184 167.184-167.184 49.486 0 93.811 21.629 124.426 55.798l319.321-165.157c-3.072-11.807-4.869-24.137-4.869-36.927 0-80.792 65.494-146.286 146.286-146.286s146.286 65.494 146.286 146.286-65.515 146.286-146.307 146.286z"  horiz-adv-x="1024" />

    
    <glyph glyph-name="realtime" unicode="&#58950;" d="M757.3 413.4c-113.8 0-206-92.2-206-206s92.2-206 206-206 206 92.2 206 206c0 113.8-92.2 206-206 206zM757.3 70.1c-75.8 0-137.3 61.5-137.3 137.3 0 75.8 61.5 137.3 137.3 137.3s137.3-61.5 137.3-137.3c0-75.8-61.5-137.3-137.3-137.3zM829.8 205.5h-54v59c0 14.1-11.4 25.5-25.5 25.5s-25.5-11.4-25.5-25.5v-79c0-1.7 0.2-3.4 0.5-5.1 0-0.1 0-0.3 0-0.4 0-14.1 11.4-25.5 25.5-25.5h79c14.1 0 25.5 11.4 25.5 25.5s-11.4 25.5-25.5 25.5zM551.8 192.5h-423.6l0 158.4h103.5l85.4 83.2c6.8-3.5 14.5-5.5 22.7-5.5 5.6 0 11 1 16 2.7l54-74.2c-0.5-2.8-0.7-5.6-0.7-8.5 0-27.2 22-49.2 49.2-49.2 26.7 0 48.5 21.3 49.2 47.9l144.8 143.3c11.6-6.2 24.9-9.7 39.1-9.7 45.9 0 83.1 37.2 83.1 83.1 0 45.9-37.2 83.1-83.1 83.1-45.9 0-83.1-37.2-83.1-83.1 0-13.8 3.4-26.9 9.4-38.3l-135.4-134c-7.1 4-15.3 6.2-24 6.2-5.4 0-10.6-0.9-15.4-2.5l-54.4 74.7c0.4 2.5 0.6 5.1 0.6 7.7 0 27.2-22 49.2-49.2 49.2-27.2 0-49.2-22-49.2-49.2 0-0.3 0-0.6 0-0.8l-78.9-76.8h-83.3l-0 282c0 10.2 8.3 18.5 18.5 18.5h731c10.2 0 18.5-8.3 18.5-18.5v-322.9c34.8-31.9 58.6-75.7 65.1-124.9v502.3c0 16.8-13.6 30.4-30.4 30.4h-837.5c-16.8 0-30.4-13.6-30.4-30.4v-584.6h0.3c1-13.2 12-23.6 25.5-23.6 0.5 0 1.1 0 1.6 0.1v-0.1l476.3 0c-8.3 20-13.6 41.5-15.2 64zM690.7 601.5c19.4 0 35.2-15.8 35.2-35.2 0-19.4-15.8-35.2-35.2-35.2-19.4 0-35.2 15.8-35.2 35.2 0 19.5 15.8 35.2 35.2 35.2z"  horiz-adv-x="1024" />

    
    <glyph glyph-name="yuan" unicode="&#59228;" d="M512 384m-505.429418 0a10 10 0 1 0 1010.858835 0 10 10 0 1 0-1010.858835 0Z"  horiz-adv-x="1024" />

    
    <glyph glyph-name="ai-edit" unicode="&#58904;" d="M201.676 771.17c-54.615 0-99.271-44.376-99.271-99.269v-598.226c0-54.614 44.655-98.992 99.271-98.992h598.504c54.614 0 98.992 44.378 98.992 98.992l-0 393.131 102.7 99.269v-528.804c0-91.312-77.378-165.271-168.691-165.271h-667.909c-91.306 0-165.271 73.959-165.271 165.271v660.797c0 91.306 73.964 175.508 165.271 175.508h528.805l-98.992-102.412-393.409 0.006zM567.777 285.031l-221.87-62.86 63.432 220.453 158.438-157.593zM589.974 307.217l-158.733 157.309 348.742 346.462 158.733-157.298-348.742-346.473zM1010.4 724.802l-47.508-47.225-158.726 157.593 47.502 47.225c17.642 17.349 45.228 18.21 61.448 1.986l99.269-98.419c16.219-16.209 15.358-43.81-1.986-61.159v0zM1010.4 724.802z"  horiz-adv-x="1025" />

    
    <glyph glyph-name="xiugaimima" unicode="&#58959;" d="M818.147454 486.720457l-17.287232 0 0 0L647.278323 486.720457l0 0-289.872543 0L357.40578 657.190022c0 56.681955 68.752045 119.401637 153.581899 119.401637 84.831195 0 153.581899-62.719682 153.581899-119.401637l0-41.81625 0-0.801812 0-0.808516 0-7.635987 0.803153 0c4.022469-28.949711 28.949711-51.059884 59.099459-51.059884 30.15243 0 55.079672 22.111514 59.1008 51.059884l0.801812 0 0 51.062566C784.376143 789.059973 662.157437 896 511.387244 896 360.627778 896 238.403708 789.059973 238.403708 657.190022l0-170.469566L204.228809 486.720457C147.54015 486.720457 101.708135 440.888442 101.708135 384.198442L101.708135-25.480667c0-56.687318 45.832015-102.519333 102.520674-102.519333l614.320891 0c56.69 0 102.520674 45.832015 102.520674 102.519333L921.070375 384.198442C920.666787 440.888442 874.432525 486.720457 818.147454 486.720457L818.147454 486.720457 818.147454 486.720457zM562.050244 108.802765l0-46.641872c0-29.347936-22.918689-53.069778-51.464813-53.069778-28.142536 0-51.055862 23.720501-51.055862 53.069778L459.52957 108.802765c-40.20458 18.894879-68.352479 59.499024-68.352479 106.53778 0 65.131822 53.472025 117.803376 119.408341 117.803376 65.933634 0 119.408341-52.671553 119.408341-117.803376C630.391997 168.30179 602.24812 127.698985 562.050244 108.802765L562.050244 108.802765 562.050244 108.802765z"  horiz-adv-x="1024" />

    
    <glyph glyph-name="sousuo" unicode="&#59000;" d="M704 246.399999C733.19584 281.546369 755.044838 320.805418 768.57207 364.02001 779.087686 397.613567 784.574477 433.597451 784.574477 471.897844 784.574477 670.974016 623.390412 832.332634 424.529304 832.332634 225.702689 832.332634 64.480433 670.974016 64.480433 471.897844 64.480433 272.85867 225.702689 111.460591 424.529304 111.460591 512.02356 111.460591 587.197878 140.052477 649.599976 191.999975L878.203494-36.409455C893.33415-51.527269 918.125242-51.215896 932.601805-36.69134L932.601805-36.69134C947.514509-21.729207 947.275341 2.747411 932.249568 17.796484L704 246.399999ZM115.199997 473.600565C115.199997 642.993773 252.987407 780.799981 422.400584 780.799981 591.77617 780.799981 729.6 642.993773 729.6 473.600565 729.6 304.205009 591.77617 166.399978 422.400584 166.399978 252.988582 166.399978 115.199997 304.205009 115.199997 473.600565L115.199997 473.600565Z"  horiz-adv-x="1024" />

    
    <glyph glyph-name="touxiang1" unicode="&#58932;" d="M511.999-62.986c-246.863 0-446.986 200.121-446.986 446.985 0 246.864 200.122 446.986 446.986 446.986 246.861 0 446.985-200.121 446.985-446.986 0-246.863-200.124-446.985-446.985-446.985zM708.781 286.939c-39.542 17.752-24.313 4.17-72.856 22.335-48.54 18.142-60.033 24.063-60.033 24.063l2.794 31.705c0 0 44.587 13.891 52.961 68.239 16.748-4.088 22.421 16.586 23.328 29.797 0.996 12.764 9.906 52.551-10.593 49 4.198 26.566 7.484 50.581 5.989 63.295-5.121 44.628-41.66 91.226-133.89 94.627-22.664-0.984-43.033-5.581-60.66-12.697-6.781-2.737-50.942 2.778-56.89-9.269-3.235-6.554 6.703-26.521 1.373-30.799-21.626-17.36-15.801-20.423-18.274-41.895-1.478-12.714 1.533-36.708 5.724-63.319-20.485 3.597-11.668-36.26-10.767-49.018 0.992-13.207 6.534-33.954 23.33-29.855 8.339-54.352 62.852-68.316 62.852-68.316l2.823-31.907c0 0-11.502-6.33-60.038-24.465-48.541-18.167-33.321-3.761-72.856-21.51-62.483-28.059-62.483-105.216-62.483-105.216h0.015c0-0.018-0.005-0.032-0.005-0.050 0-11.697 10.506-21.175 23.465-21.175h453.693c12.959 0 23.467 9.479 23.467 21.175 0 0.018-0.005 0.032-0.005 0.050h0.014c-0.001 0-0.001 77.157-62.48 105.207z"  horiz-adv-x="1024" />

    
    <glyph glyph-name="wenti-m" unicode="&#58906;" d="M512 830.016c-245.92 0-446.016-200.096-446.016-446.016 0-245.952 200.064-446.016 446.016-446.016 245.952 0 446.016 200.064 446.016 446.016-0 245.92-200.064 446.016-446.016 446.016zM512 1.984c-210.656 0-382.016 171.392-382.016 382.016 0 210.656 171.36 382.016 382.016 382.016 210.624 0 382.016-171.36 382.016-382.016-0-210.624-171.392-382.016-382.016-382.016zM512 640.8c-77.216 0-140.032-62.272-140.032-138.816 0-17.664 14.336-32 32-32s32 14.336 32 32c0 41.952 33.376 74.816 76.032 74.816 41.952 0 76.032-34.368 76.032-76.64 0-15.968-22.848-38.784-43.008-58.944-30.464-30.432-65.024-64.96-65.024-111.232v-45.696c0-17.696 14.336-32 32-32s32 14.304 32 32v45.696c0 19.744 23.52 43.264 46.272 65.984 28.928 28.928 61.76 61.728 61.76 104.192 0 77.568-62.816 140.64-140.032 140.64zM464 142.080c0-26.51 21.49-48 48-48s48 21.49 48 48c0 26.51-21.49 48-48 48-26.51 0-48-21.49-48-48z"  horiz-adv-x="1024" />

    
    <glyph glyph-name="zhanghuqiehuan" unicode="&#58952;" d="M485.376 723.968c-100.352 0-182.272-79.872-182.272-180.224 0-71.68 40.96-131.072 102.4-161.792-43.008-12.288-79.872-34.816-112.64-67.584-51.2-51.2-79.872-118.784-79.872-190.464 0-8.192 6.144-14.336 14.336-14.336 8.192 0 14.336 6.144 14.336 14.336 0 63.488 24.576 124.928 71.68 169.984 45.056 45.056 104.448 69.632 167.936 69.632 0 0 2.048 0 2.048 0 100.352 0 182.272 79.872 182.272 180.224S585.728 723.968 485.376 723.968zM485.376 394.24C485.376 394.24 485.376 396.288 485.376 394.24c-2.048 0-2.048 0-4.096 0-81.92 2.048-149.504 67.584-149.504 149.504 0 81.92 67.584 149.504 151.552 149.504 83.968 0 151.552-67.584 151.552-149.504C636.928 461.824 569.344 396.288 485.376 394.24zM759.808 330.752 655.36 330.752c0 0 0 0 0 0 0 0 0 0 0 0l24.576 24.576c2.048 2.048 4.096 6.144 4.096 10.24 0 4.096-2.048 6.144-4.096 10.24-6.144 6.144-14.336 6.144-18.432 0l-49.152-49.152c-4.096-4.096-4.096-10.24-2.048-14.336s6.144-8.192 12.288-8.192l139.264 0c34.816 0 63.488-26.624 63.488-61.44 0-30.72-22.528-59.392-53.248-63.488-6.144 0-10.24-6.144-10.24-12.288 0-4.096 2.048-8.192 4.096-10.24 2.048-2.048 6.144-4.096 8.192-4.096 0 0 2.048 0 2.048 0 45.056 6.144 77.824 45.056 75.776 90.112C849.92 291.84 808.96 330.752 759.808 330.752zM712.704 175.104 573.44 175.104c-34.816 0-63.488 26.624-63.488 61.44 0 30.72 22.528 59.392 53.248 63.488 6.144 0 10.24 6.144 10.24 12.288 0 4.096-2.048 8.192-4.096 10.24-2.048 2.048-6.144 4.096-10.24 4.096-45.056-6.144-77.824-45.056-75.776-90.112 2.048-47.104 40.96-88.064 90.112-88.064l104.448 0c0 0 0 0 0 0 0 0 0 0 0 0l-24.576-24.576c-2.048-2.048-4.096-6.144-4.096-10.24 0-4.096 2.048-6.144 4.096-10.24 2.048-2.048 6.144-4.096 10.24-4.096 4.096 0 6.144 2.048 10.24 4.096l49.152 49.152c4.096 4.096 4.096 10.24 2.048 14.336C722.944 171.008 716.8 175.104 712.704 175.104z"  horiz-adv-x="1024" />

    
    <glyph glyph-name="fenxiang1" unicode="&#58936;" d="M851.2512-38.6048 176.9472-38.6048c-94.8224 0-105.3696 81.2032-105.3696 81.2032L71.5776 695.3984c0 86.016 89.9072 93.7984 89.9072 93.7984l282.7264 0-0.3072-37.6832L169.1648 751.5136c-50.2784 0-58.9824-42.5984-58.9824-42.5984L110.1824 53.248c0-49.2544 60.928-56.1152 60.928-56.1152l670.208 0c24.1664 0 23.2448 34.816 23.2448 34.816L864.5632 338.7392l35.1232 0 0-291.2256C899.6864-31.8464 851.2512-38.6048 851.2512-38.6048L851.2512-38.6048zM763.904 416.8704l-28.0576 28.0576 144.0768 146.0224L733.9008 590.9504C568.6272 571.5968 486.4 497.152 486.4 497.152 352.9728 400.384 352.9728 147.0464 352.9728 147.0464L313.344 147.0464c-2.8672 190.5664 75.4688 300.7488 75.4688 300.7488 113.152 176.0256 352.0512 181.76 352.0512 181.76l133.4272 0-139.264 150.9376 28.0576 26.112 189.5424-201.216L763.904 416.8704 763.904 416.8704z"  horiz-adv-x="1024" />

    
    <glyph glyph-name="quanbu-23" unicode="&#58907;" d="M762.23232 396.8c-38.4 6.4-19.2 32-19.2 32s38.4 64-6.4 108.8c-57.6 57.6-198.4-6.4-198.4-6.4-57.6-19.2-44.8 6.4-38.4 44.8 0 51.2-19.2 128-160 83.2-140.8-51.2-262.4-217.6-262.4-217.6C-12.16768 326.4 0.63232 236.8 0.63232 236.8c19.2-192 230.4-249.6 390.4-262.4 166.4-12.8 396.8 57.6 467.2 204.8 64 147.2-57.6 204.8-96 217.6z m-358.4-364.8c-166.4-6.4-300.8 76.8-300.8 185.6 0 115.2 134.4 204.8 300.8 211.2 166.4 6.4 300.8-64 300.8-172.8 0-115.2-134.4-217.6-300.8-224zM365.43232 358.4c-166.4-19.2-147.2-179.2-147.2-179.2s0-51.2 44.8-76.8c96-51.2 198.4-19.2 249.6 44.8 57.6 64 25.6 230.4-147.2 211.2z m-38.4-224c-32-6.4-57.6 12.8-57.6 38.4s25.6 51.2 51.2 57.6c38.4 6.4 64-19.2 64-44.8 0-25.6-25.6-51.2-57.6-51.2z m96 83.2c-12.8-6.4-25.6-6.4-32 0-6.4 6.4-6.4 25.6 6.4 32 12.8 6.4 25.6 6.4 32 0 12.8-6.4 6.4-25.6-6.4-32zM839.03232 460.8c12.8 0 25.6 12.8 25.6 25.6 25.6 185.6-147.2 153.6-147.2 153.6-12.8 0-25.6-12.8-25.6-25.6s12.8-25.6 25.6-25.6c121.6 25.6 96-96 96-96 0-19.2 12.8-32 25.6-32zM819.83232 787.2c-57.6 12.8-121.6 0-140.8 0h-6.4c-19.2-6.4-32-19.2-32-38.4s19.2-38.4 38.4-38.4c0 0 19.2 0 38.4 6.4 12.8 6.4 140.8 6.4 198.4-96 32-76.8 12.8-128 12.8-134.4 0 0-6.4-19.2-6.4-38.4s19.2-38.4 38.4-38.4 32 0 38.4 32c76.8 217.6-70.4 320-179.2 345.6z"  horiz-adv-x="1024" />

    
    <glyph glyph-name="quanbu-25" unicode="&#58908;" d="M940.8-44.8l-121.6 70.4c-32-6.4-70.4-19.2-102.4-19.2-172.8 0-313.6 121.6-313.6 268.8 0 147.2 140.8 268.8 313.6 268.8s313.6-121.6 313.6-268.8c0-70.4-44.8-147.2-121.6-211.2l32-108.8z m-121.6 102.4l70.4-38.4-19.2 64 6.4 6.4c76.8 57.6 115.2 121.6 115.2 192 0 128-128 236.8-281.6 236.8-153.6 0-281.6-108.8-281.6-236.8 0-134.4 128-236.8 281.6-236.8 32-6.4 70.4 0 108.8 12.8zM409.6 217.6h-44.8c-38.4 0-64 6.4-102.4 12.8l-25.6 6.4-96-44.8 25.6 83.2C76.8 339.2 32 416 32 499.2c0 153.6 153.6 281.6 332.8 281.6 166.4 0 313.6-102.4 339.2-236.8v-12.8h32v19.2c-32 147.2-192 256-371.2 256C166.4 812.8 0 672 0 499.2 0 403.2 44.8 320 140.8 256l-44.8-128 153.6 76.8h12.8c38.4-6.4 70.4-12.8 108.8-12.8h51.2c-6.4 6.4-6.4 12.8-12.8 25.6z"  horiz-adv-x="1030" />

    
    <glyph glyph-name="quanbu-24" unicode="&#58909;" d="M217.6 505.6z m588.8 6.4z m-416-428.8z m0 595.2z m243.2 6.4zM217.6 262.4z m416-179.2zM512 896C230.4 896 0 665.6 0 384s230.4-512 512-512 512 230.4 512 512-230.4 512-512 512z m185.6-416V825.6c38.4-19.2 76.8-38.4 108.8-64l38.4-38.4c32-32 57.6-64 76.8-96 6.4-6.4 12.8-19.2 12.8-25.6l-236.8-236.8v44.8 70.4zM460.8 857.6H512c44.8 0 83.2-6.4 121.6-19.2 12.8 0 19.2-6.4 32-6.4v-339.2c-6.4 19.2-19.2 25.6-32 38.4 0 0-6.4 6.4-12.8 6.4l-38.4 44.8-19.2 19.2-230.4 224c44.8 19.2 83.2 25.6 128 32z m-320-179.2l38.4 38.4c32 32 64 57.6 96 76.8 6.4 6.4 19.2 12.8 25.6 12.8l236.8-236.8c-12.8 6.4-25.6 6.4-38.4 0H76.8c12.8 38.4 38.4 76.8 64 108.8zM38.4 332.8V384c0 44.8 6.4 83.2 19.2 121.6 0 12.8 6.4 19.2 6.4 32h339.2c-12.8-6.4-25.6-19.2-32-32-6.4 0-12.8-6.4-12.8-12.8l-44.8-38.4-19.2-19.2-224-224C57.6 249.6 44.8 288 38.4 332.8z m288-38.4v-345.6c-38.4 19.2-76.8 38.4-108.8 64l-38.4 38.4c-32 32-57.6 64-76.8 96-6.4 6.4-12.8 19.2-12.8 25.6l236.8 236.8v-115.2zM512 537.6c83.2 0 153.6-70.4 153.6-153.6 0-83.2-70.4-153.6-153.6-153.6-83.2 0-153.6 70.4-153.6 153.6 0 83.2 70.4 153.6 153.6 153.6z m51.2-627.2H512c-44.8 0-83.2 6.4-121.6 19.2-12.8 0-19.2 6.4-32 6.4V268.8c6.4-12.8 19.2-25.6 32-32l12.8-12.8 44.8-44.8 19.2-19.2 224-224c-38.4-12.8-83.2-19.2-128-25.6z m320 172.8l-38.4-38.4c-32-32-64-57.6-96-76.8-6.4-6.4-19.2-12.8-25.6-12.8L486.4 192h467.2c-19.2-32-44.8-70.4-70.4-108.8z m76.8 147.2H620.8c12.8 6.4 25.6 19.2 32 32l12.8 12.8 44.8 44.8 19.2 19.2 224 224c12.8-38.4 25.6-83.2 32-121.6v-51.2c0-44.8-6.4-83.2-19.2-121.6 0-19.2 0-25.6-6.4-38.4z m-153.6 32z"  horiz-adv-x="1024" />

    
    <glyph glyph-name="quanbu-26" unicode="&#58910;" d="M704-128c-12.8 0-32 0-44.8 6.4-51.2 6.4-96 32-128 64-12.8-6.4-32-6.4-44.8 0-32-32-76.8-57.6-140.8-64-102.4-12.8-185.6 25.6-198.4 76.8-6.4 44.8 44.8 83.2 96 102.4-25.6 25.6-38.4 64-51.2 96-25.6-32-51.2-57.6-83.2-51.2-6.4 0-19.2 6.4-32 32-19.2 38.4-19.2 128 19.2 198.4 12.8 32 38.4 57.6 57.6 76.8 0 19.2-6.4 32-6.4 51.2 0 25.6 12.8 51.2 32 64v38.4C179.2 748.8 326.4 896 512 896c185.6 0 339.2-147.2 339.2-332.8v-38.4c19.2-12.8 25.6-32 25.6-70.4 0-12.8 0-32-6.4-44.8 12.8-19.2 32-44.8 44.8-70.4v-6.4c38.4-57.6 38.4-153.6 19.2-204.8-6.4-19.2-19.2-25.6-32-32h-12.8c-32 0-51.2 19.2-70.4 44.8-12.8-32-25.6-64-51.2-89.6 64-25.6 96-57.6 89.6-96 0-44.8-70.4-83.2-153.6-83.2z m-160 115.2l12.8-12.8c25.6-32 64-51.2 115.2-64h38.4c64 0 115.2 32 121.6 57.6 0 25.6-32 51.2-89.6 70.4l-25.6 6.4 19.2 19.2c32 32 57.6 89.6 64 134.4l6.4 44.8 38.4-57.6c19.2-25.6 32-51.2 51.2-51.2h6.4c12.8 6.4 25.6 115.2-12.8 179.2l-6.4 6.4c-19.2 32-38.4 64-51.2 83.2l-12.8 19.2 12.8 6.4c6.4 0 6.4 19.2 6.4 25.6 0 32-6.4 38.4-19.2 44.8l-12.8 6.4v12.8 44.8c0 160-134.4 294.4-300.8 294.4s-300.8-128-300.8-294.4c0-12.8 0-32 6.4-44.8V499.2c-19.2-12.8-25.6-25.6-25.6-38.4 0-12.8 6.4-25.6 12.8-44.8l6.4-12.8-6.4-6.4c-19.2-19.2-44.8-44.8-57.6-76.8-32-64-32-134.4-19.2-166.4 0-12.8 6.4-12.8 6.4-12.8 12.8 0 38.4 25.6 57.6 51.2l38.4 44.8 6.4-44.8c6.4-44.8 32-96 64-134.4l19.2-19.2-32-6.4c-57.6-19.2-96-44.8-96-70.4 6.4-32 76.8-57.6 153.6-51.2 57.6 6.4 102.4 25.6 121.6 57.6l6.4 6.4H486.4c6.4 0 25.6-6.4 38.4 0l19.2 12.8z"  horiz-adv-x="1024" />

    
    <glyph glyph-name="film" unicode="&#58913;" d="M876.8 896h-729.6c-83.2 0-147.2-64-147.2-147.2v-729.6c0-83.2 64-147.2 147.2-147.2h729.6c83.2 0 147.2 64 147.2 147.2v729.6c0 83.2-64 147.2-147.2 147.2zM844.8 832h44.8c38.4 0 70.4-38.4 70.4-76.8v-115.2h-115.2v192zM844.8 569.6h115.2v-153.6h-115.2v153.6zM960 352v-153.6h-115.2v153.6h115.2zM185.6-57.6h-44.8c-38.4 0-70.4 32-70.4 70.4l-6.4 115.2h121.6v-185.6zM185.6 192h-121.6v160h121.6v-160zM185.6 416h-121.6v153.6h121.6v-153.6zM185.6 640h-121.6v115.2c0 38.4 32 76.8 70.4 76.8h44.8l6.4-192zM774.4-57.6h-531.2v409.6h531.2v-409.6zM774.4 416h-524.8v416h531.2l-6.4-416zM883.2-57.6h-44.8v185.6h121.6v-115.2c0-38.4-32-70.4-76.8-70.4z"  horiz-adv-x="1024" />

    
    <glyph glyph-name="column" unicode="&#58914;" d="M230.4 480l-25.6-70.4h-64l51.2-44.8-25.6-76.8 64 44.8 64-44.8-25.6 76.8 57.6 44.8h-70.4l-25.6 70.4zM230.4 755.2l-25.6-64h-64l51.2-44.8-25.6-76.8 64 44.8 64-44.8-25.6 76.8 57.6 44.8h-70.4l-25.6 64zM256 128l-25.6 70.4-25.6-70.4h-64l51.2-38.4-25.6-76.8 64 44.8 64-44.8-25.6 76.8 57.6 38.4h-70.4zM928 896h-832c-51.2 0-96-44.8-96-96v-838.4c0-44.8 44.8-89.6 96-89.6h838.4c51.2 0 96 44.8 96 96v832c-6.4 51.2-51.2 96-102.4 96zM979.2-32c0-25.6-19.2-44.8-44.8-44.8h-838.4c-25.6 0-44.8 19.2-44.8 44.8v832c0 25.6 19.2 44.8 44.8 44.8h838.4c25.6 0 44.8-19.2 44.8-44.8v-832zM864 128h-422.4c-12.8 0-25.6-12.8-25.6-25.6s12.8-25.6 25.6-25.6h416c12.8 0 25.6 12.8 25.6 25.6s-6.4 25.6-19.2 25.6zM864 684.8h-422.4c-12.8 0-25.6-12.8-25.6-25.6 0-6.4 12.8-19.2 25.6-19.2h416c12.8 0 25.6 12.8 25.6 25.6s-6.4 19.2-19.2 19.2zM864 409.6h-422.4c-12.8 0-25.6-12.8-25.6-25.6s12.8-25.6 25.6-25.6h416c12.8 0 25.6 12.8 25.6 25.6s-6.4 25.6-19.2 25.6z"  horiz-adv-x="1030" />

    
    <glyph glyph-name="shandongAPPtubiao-06" unicode="&#58911;" d="M0 716.8v-499.2c0-89.6 70.4-160 160-160h230.4v-108.8H249.6c-12.8 0-25.6-12.8-25.6-25.6s12.8-32 25.6-32h524.8c12.8 0 25.6 12.8 25.6 32 0 12.8-12.8 25.6-25.6 25.6h-128v108.8h224c89.6 0 160 70.4 160 160V716.8c0 89.6-70.4 160-160 160h-704C70.4 876.8 0 806.4 0 716.8m76.8-38.4c0 76.8 57.6 134.4 134.4 134.4h608c76.8 0 134.4-57.6 134.4-134.4v-448c0-76.8-57.6-96-134.4-96H211.2c-76.8 0-134.4 25.6-134.4 96v448m0 0M230.4 320l-44.8 25.6 44.8 64 38.4 6.4 19.2-70.4 102.4 147.2 38.4 6.4 128-115.2 172.8 204.8-32 38.4 121.6 12.8-12.8-128-38.4 38.4-192-217.6h-38.4L416 441.6 320 288l-38.4-6.4L256 358.4l-25.6-38.4z"  horiz-adv-x="1030" />

    
    <glyph glyph-name="lookback" unicode="&#58915;" d="M883.2-89.6h-665.6c-76.8 0-140.8 64-140.8 140.8v268.8c0 12.8 12.8 25.6 19.2 25.6s25.6-12.8 25.6-25.6v-268.8c0-51.2 44.8-96 96-96h665.6c51.2 0 96 44.8 96 96v665.6c0 51.2-44.8 96-96 96h-665.6c-51.2 0-96-44.8-96-96v-64c0-12.8-12.8-25.6-19.2-25.6s-25.6 12.8-25.6 25.6v64c0 76.8 64 140.8 140.8 140.8h665.6c76.8 0 140.8-64 140.8-140.8v-665.6c0-76.8-64-140.8-140.8-140.8zM192 678.4l-96-166.4-96 166.4zM620.8 172.8c12.8-6.4 25.6 0 25.6 12.8v390.4c0 12.8-19.2 25.6-25.6 12.8l-243.2-192c-6.4-6.4-6.4-19.2 0-25.6l243.2-198.4z"  horiz-adv-x="1024" />

    
    <glyph glyph-name="shandongAPPtubiao-05" unicode="&#58912;" d="M0 716.8v-499.2c0-89.6 70.4-160 160-160h230.4v-108.8H249.6c-12.8 0-25.6-12.8-25.6-25.6s12.8-32 25.6-32h524.8c12.8 0 25.6 12.8 25.6 32 0 12.8-12.8 25.6-25.6 25.6h-128v108.8h224c89.6 0 160 70.4 160 160V716.8c0 89.6-70.4 160-160 160h-704C70.4 876.8 0 806.4 0 716.8m76.8-38.4c0 76.8 57.6 134.4 134.4 134.4h608c76.8 0 134.4-57.6 134.4-134.4v-448c0-76.8-57.6-96-134.4-96H211.2c-76.8 0-134.4 25.6-134.4 96v448m0 0M230.4 601.6l-44.8-32 44.8-57.6 38.4-6.4 19.2 70.4 102.4-147.2 38.4-6.4 128 115.2 172.8-204.8-32-38.4 121.6-12.8-12.8 128-38.4-44.8-192 224h-38.4L416 480 320 627.2 281.6 640 256 563.2l-25.6 38.4z"  horiz-adv-x="1030" />

    
    <glyph glyph-name="time" unicode="&#58882;" d="M512-128c-281.6 0-512 230.4-512 512s230.4 512 512 512 512-230.4 512-512c0-38.4-6.4-76.8-12.8-115.2-6.4-19.2-25.6-32-44.8-32-19.2 6.4-32 25.6-32 44.8 6.4 32 12.8 64 12.8 96 0 236.8-192 435.2-435.2 435.2-236.8 0-435.2-192-435.2-435.2 0-236.8 192-435.2 435.2-435.2 38.4 0 83.2 6.4 121.6 19.2 19.2 6.4 44.8-6.4 51.2-25.6 6.4-19.2-6.4-44.8-25.6-51.2-51.2-6.4-96-12.8-147.2-12.8M748.8 115.2c-6.4 0-19.2 6.4-25.6 12.8l-256 230.4c-12.8 6.4-19.2 12.8-19.2 25.6v275.2c0 19.2 19.2 38.4 38.4 38.4s38.4-19.2 38.4-38.4v-256l243.2-217.6c19.2-12.8 19.2-38.4 6.4-57.6-6.4-6.4-12.8-12.8-25.6-12.8M812.8 32c0-19.2 6.4-32 19.2-44.8 12.8-12.8 25.6-19.2 44.8-19.2 19.2 0 32 6.4 44.8 19.2 12.8 12.8 19.2 25.6 19.2 44.8 0 19.2-6.4 32-19.2 44.8-12.8 12.8-25.6 19.2-44.8 19.2-19.2 0-32-6.4-44.8-19.2-12.8-12.8-19.2-32-19.2-44.8M812.8 32z"  horiz-adv-x="1024" />

    
    <glyph glyph-name="trend_up" unicode="&#58884;" d="M0 716.8v-499.2c0-89.6 70.4-160 160-160h230.4v-108.8h-140.8c-12.8 0-25.6-12.8-25.6-25.6s12.8-32 25.6-32h524.8c12.8 0 25.6 12.8 25.6 32 0 12.8-12.8 25.6-25.6 25.6h-128v108.8h224c89.6 0 160 70.4 160 160v499.2c0 89.6-70.4 160-160 160h-704c-96 0-166.4-70.4-166.4-160M76.8 678.4c0 76.8 57.6 134.4 134.4 134.4h608c76.8 0 134.4-57.6 134.4-134.4v-448c0-76.8-57.6-96-134.4-96h-608c-76.8 0-134.4 25.6-134.4 96v448M230.4 320l-44.8 25.6 44.8 64 38.4 6.4 19.2-70.4 102.4 147.2 38.4 6.4 128-115.2 172.8 204.8-32 38.4 121.6 12.8-12.8-128-38.4 38.4-192-217.6h-38.4l-121.6 108.8-96-153.6-38.4-6.4-25.6 76.8-25.6-38.4z"  horiz-adv-x="1030" />

    
    <glyph glyph-name="trend_down" unicode="&#58885;" d="M0 716.8v-499.2c0-89.6 70.4-160 160-160h230.4v-108.8h-140.8c-12.8 0-25.6-12.8-25.6-25.6s12.8-32 25.6-32h524.8c12.8 0 25.6 12.8 25.6 32 0 12.8-12.8 25.6-25.6 25.6h-128v108.8h224c89.6 0 160 70.4 160 160v499.2c0 89.6-70.4 160-160 160h-704c-96 0-166.4-70.4-166.4-160M76.8 678.4c0 76.8 57.6 134.4 134.4 134.4h608c76.8 0 134.4-57.6 134.4-134.4v-448c0-76.8-57.6-96-134.4-96h-608c-76.8 0-134.4 25.6-134.4 96v448M230.4 601.6l-44.8-32 44.8-57.6 38.4-6.4 19.2 70.4 102.4-147.2 38.4-6.4 128 115.2 172.8-204.8-32-38.4 121.6-12.8-12.8 128-38.4-44.8-192 224h-38.4l-121.6-108.8-96 147.2-38.4 12.8-25.6-76.8-25.6 38.4z"  horiz-adv-x="1030" />

    
    <glyph glyph-name="shandongAPPtubiao-08" unicode="&#58902;" d="M736 313.6C659.2 358.4 563.2 384 460.8 384 204.8 384 0 224 0 25.6c0-57.6 19.2-108.8 44.8-153.6h480c-6.4 32-12.8 64-12.8 102.4 0 160 96 288 224 339.2zM435.2 435.2c128 0 230.4 102.4 230.4 230.4S563.2 896 435.2 896 204.8 793.6 204.8 665.6s102.4-230.4 230.4-230.4z m486.4-512h51.2c12.8 0 25.6 12.8 25.6 25.6V256c0 12.8-12.8 25.6-25.6 25.6h-51.2c-12.8 0-25.6-12.8-25.6-25.6v-307.2c0-12.8 12.8-25.6 25.6-25.6z m-153.6 0h51.2c12.8 0 25.6 12.8 25.6 25.6v230.4c0 12.8-12.8 25.6-25.6 25.6H768c-12.8 0-25.6-12.8-25.6-25.6v-230.4c0-12.8 12.8-25.6 25.6-25.6zM614.4 128c-12.8 0-25.6-12.8-25.6-25.6v-153.6c0-12.8 12.8-25.6 25.6-25.6h51.2c12.8 0 25.6 12.8 25.6 25.6v153.6c0 12.8-12.8 25.6-25.6 25.6h-51.2z m384-204.8H588.8c-12.8 0-25.6-12.8-25.6-25.6s12.8-25.6 25.6-25.6h409.6c12.8 0 25.6 12.8 25.6 25.6s-12.8 25.6-25.6 25.6z"  horiz-adv-x="1024" />

    
    <glyph glyph-name="vod_lookback" unicode="&#58887;" d="M972.8 838.4c-32 32-76.8 57.6-128 57.6h-659.2c-51.2 0-96-19.2-128-57.6-38.4-32-57.6-83.2-57.6-134.4v-428.8c0-51.2 19.2-102.4 51.2-134.4s76.8-57.6 128-57.6h652.8c51.2 0 96 19.2 128 57.6 32 32 51.2 83.2 51.2 134.4v428.8c12.8 51.2-6.4 102.4-38.4 134.4zM947.2 275.2c0-32-12.8-57.6-32-76.8-19.2-19.2-44.8-32-76.8-32h-652.8c-32 0-57.6 12.8-76.8 32s-32 44.8-32 76.8v428.8c0 32 12.8 57.6 32 76.8 19.2 19.2 44.8 32 76.8 32h652.8c25.6 0 57.6-12.8 76.8-32 19.2-19.2 32-44.8 32-76.8v-428.8zM985.6-12.8h-569.6c-6.4 12.8-12.8 32-25.6 38.4-12.8 19.2-38.4 25.6-64 25.6s-44.8-12.8-64-25.6c-6.4-6.4-12.8-25.6-19.2-38.4h-204.8c-12.8 0-25.6-12.8-25.6-25.6s12.8-25.6 25.6-25.6h204.8c6.4-12.8 12.8-25.6 25.6-38.4 12.8-19.2 38.4-25.6 64-25.6s44.8 12.8 64 25.6c12.8 12.8 19.2 25.6 25.6 38.4h569.6c12.8 0 25.6 12.8 25.6 25.6-6.4 12.8-19.2 25.6-32 25.6zM358.4-64c-6.4-6.4-19.2-12.8-32-12.8s-19.2 6.4-32 12.8c-6.4 6.4-12.8 19.2-12.8 32s6.4 19.2 12.8 32c12.8 0 25.6 6.4 38.4 6.4 12.8 0 19.2-6.4 32-12.8 6.4-6.4 12.8-19.2 12.8-32-6.4-12.8-12.8-19.2-19.2-25.6zM697.6 512l-345.6 204.8c-6.4 0-6.4 6.4-12.8 6.4-12.8 0-19.2-12.8-19.2-25.6v-422.4c6.4-12.8 19.2-12.8 32-6.4l345.6 204.8c6.4 0 6.4 6.4 6.4 6.4 6.4 12.8 0 25.6-6.4 32zM499.2 409.6l-134.4-83.2v326.4l134.4-83.2 140.8-76.8-140.8-83.2z"  horiz-adv-x="1024" />

    
    <glyph glyph-name="view_analysis" unicode="&#58888;" d="M198.4 32c-6.4 0-12.8 0-25.6 6.4-12.8 12.8-25.6 38.4-6.4 57.6l153.6 230.4c6.4 6.4 25.6 12.8 32 12.8h204.8l70.4 281.6c0 12.8 6.4 19.2 12.8 32l236.8 153.6c25.6 12.8 44.8 6.4 64-6.4 12.8-12.8 6.4-38.4-6.4-57.6l-230.4-147.2-76.8-294.4c0-12.8-12.8-32-38.4-32h-211.2l-147.2-217.6c-12.8-12.8-19.2-19.2-32-19.2zM985.6-121.6h-947.2c-25.6 0-38.4 12.8-38.4 38.4v934.4c0 25.6 12.8 38.4 38.4 38.4s38.4-12.8 38.4-38.4v-896h908.8c25.6 0 38.4-12.8 38.4-38.4s-25.6-38.4-38.4-38.4z"  horiz-adv-x="1024" />

    
    <glyph glyph-name="all_trend" unicode="&#58889;" d="M512 70.4c-268.8 0-499.2 313.6-499.2 313.6s230.4 313.6 499.2 313.6 499.2-313.6 499.2-313.6-230.4-313.6-499.2-313.6zM44.8 384c38.4-51.2 236.8-281.6 467.2-281.6s422.4 230.4 467.2 281.6c-44.8 51.2-236.8 281.6-467.2 281.6s-422.4-230.4-467.2-281.6zM512 64c-140.8 0-275.2 83.2-358.4 160-89.6 76.8-147.2 153.6-147.2 153.6l-6.4 6.4 6.4 6.4s57.6 76.8 153.6 160c76.8 64 211.2 153.6 352 153.6s275.2-83.2 358.4-160c89.6-76.8 147.2-153.6 153.6-160l-6.4-6.4s-57.6-76.8-153.6-160c-76.8-64-211.2-153.6-352-153.6zM19.2 384c32-38.4 243.2-300.8 492.8-300.8s460.8 262.4 492.8 300.8c-32 38.4-249.6 300.8-492.8 300.8-249.6-0-460.8-262.4-492.8-300.8zM512 96c-236.8 0-435.2 236.8-467.2 281.6l-6.4 6.4 6.4 6.4c32 44.8 230.4 281.6 467.2 281.6s435.2-236.8 467.2-281.6l6.4-6.4-6.4-6.4c-32-44.8-230.4-281.6-467.2-281.6zM57.6 384c44.8-57.6 236.8-275.2 454.4-275.2s409.6 217.6 454.4 275.2c-44.8 57.6-236.8 275.2-454.4 275.2s-409.6-217.6-454.4-275.2zM524.8 147.2c-128 0-236.8 108.8-236.8 236.8s108.8 236.8 236.8 236.8 236.8-108.8 236.8-236.8-102.4-236.8-236.8-236.8zM524.8 595.2c-115.2 0-211.2-96-211.2-211.2s96-211.2 211.2-211.2 211.2 96 211.2 211.2-96 211.2-211.2 211.2zM524.8 140.8c-134.4 0-243.2 108.8-243.2 243.2s108.8 243.2 243.2 243.2 243.2-108.8 243.2-243.2-108.8-243.2-243.2-243.2zM524.8 614.4c-128 0-230.4-102.4-230.4-230.4s102.4-230.4 230.4-230.4 230.4 102.4 230.4 230.4-102.4 230.4-230.4 230.4zM524.8 166.4c-121.6 0-217.6 96-217.6 217.6s96 217.6 217.6 217.6 217.6-96 217.6-217.6-96-217.6-217.6-217.6zM524.8 588.8c-108.8 0-204.8-89.6-204.8-204.8s89.6-204.8 204.8-204.8 204.8 89.6 204.8 204.8-89.6 204.8-204.8 204.8zM646.4 428.8c-32 0-57.6 25.6-57.6 57.6s25.6 57.6 57.6 57.6c32-6.4 57.6-32 57.6-64 0-25.6-25.6-51.2-57.6-51.2zM646.4 524.8c-25.6 0-44.8-19.2-44.8-44.8s19.2-44.8 44.8-44.8c25.6 0 44.8 19.2 44.8 44.8 0 25.6-19.2 44.8-44.8 44.8zM646.4 416c-38.4 0-64 32-64 64s32 64 64 64 64-32 64-64-32-64-64-64zM646.4 518.4c-19.2 0-38.4-19.2-38.4-38.4s19.2-32 38.4-32 38.4 19.2 38.4 38.4-19.2 32-38.4 32zM524.8 294.4c-44.8 0-89.6 38.4-89.6 89.6s38.4 89.6 89.6 89.6c51.2 0 89.6-38.4 89.6-89.6s-38.4-89.6-89.6-89.6zM524.8 460.8c-38.4 0-76.8-38.4-76.8-76.8s32-76.8 76.8-76.8c38.4 0 76.8 32 76.8 76.8 0 38.4-32 76.8-76.8 76.8zM524.8 288c-51.2 0-96 44.8-96 96s44.8 96 96 96 96-44.8 96-96-44.8-96-96-96zM524.8 448c-38.4 0-64-32-64-64s32-64 64-64 64 32 64 64-25.6 64-64 64z"  horiz-adv-x="1024" />

    
    <glyph glyph-name="hw" unicode="&#58895;" d="M436.8 755.2s-83.2 6.4-134.4-64c-51.2-64-12.8-166.4 12.8-217.6 25.6-51.2 153.6-262.4 160-268.8 6.4-6.4 12.8 0 12.8 0 0 6.4 12.8 300.8 0 377.6-6.4 76.8-44.8 166.4-51.2 172.8zM155.2 620.8c-6.4 0-76.8-70.4-83.2-134.4s25.6-108.8 102.4-160c76.8-57.6 262.4-160 268.8-147.2 6.4 6.4-70.4 140.8-134.4 236.8-64 102.4-140.8 204.8-153.6 204.8zM180.8 19.2c57.6-25.6 147.2 32 166.4 51.2 25.6 19.2 64 51.2 64 51.2l-320-6.4c6.4-12.8 32-76.8 89.6-96zM187.2 275.2c-57.6 25.6-172.8 96-179.2 96s-19.2-83.2 12.8-147.2c38.4-64 108.8-83.2 140.8-83.2 38.4-6.4 256 0 256 0s-172.8 108.8-230.4 134.4zM724.8 697.6c-51.2 70.4-134.4 64-134.4 64-6.4-12.8-44.8-102.4-51.2-179.2-12.8-76.8 0-371.2 0-377.6 0-6.4 6.4-6.4 12.8 0s134.4 211.2 160 268.8c25.6 51.2 64 153.6 12.8 224zM1019.2 371.2c-6.4 0-121.6-64-179.2-96-57.6-25.6-230.4-134.4-230.4-134.4 0-6.4 217.6-6.4 256 0 32 6.4 102.4 25.6 140.8 83.2 32 64 12.8 140.8 12.8 147.2zM673.6 64c25.6-19.2 115.2-70.4 166.4-51.2 57.6 25.6 89.6 89.6 89.6 89.6l-320 6.4c0 6.4 44.8-25.6 64-44.8zM955.2 486.4c-6.4 64-70.4 134.4-83.2 134.4-6.4 0-89.6-102.4-153.6-204.8-64-96-140.8-230.4-134.4-243.2 6.4-6.4 192 96 268.8 147.2 76.8 57.6 108.8 102.4 102.4 166.4z"  horiz-adv-x="1025" />

    
    <glyph glyph-name="zte" unicode="&#58896;" d="M313.6 633.6h-262.4c-19.2 0-32-12.8-32-32s12.8-32 32-32h147.2c12.8 0 25.6-12.8 25.6-25.6 0-6.4 0-6.4-6.4-12.8l-211.2-332.8v-6.4c-6.4-6.4-6.4-12.8-6.4-19.2 0-19.2 12.8-32 32-32h281.6c19.2 0 32 12.8 32 32s-12.8 32-32 32h-166.4c-12.8 0-25.6 12.8-25.6 25.6v12.8l217.6 339.2c6.4 6.4 6.4 12.8 6.4 19.2 6.4 12.8-12.8 32-32 32zM672 633.6h-262.4c-19.2 0-32-12.8-32-32s12.8-32 32-32h57.6c19.2 0 32-12.8 32-32v-352c0-19.2 19.2-38.4 38.4-38.4s38.4 19.2 38.4 38.4v345.6c0 19.2 12.8 32 32 32h57.6c19.2 0 32 12.8 32 32 12.8 19.2-6.4 38.4-25.6 38.4zM992 204.8h-147.2c-19.2 0-32 12.8-32 32v76.8c0 19.2 12.8 32 32 32h121.6c19.2 0 32 12.8 32 32s-12.8 32-32 32h-121.6c-19.2 0-32 12.8-32 32v76.8c0 19.2 12.8 32 32 32h147.2c19.2 12.8 32 25.6 32 44.8 0 19.2-12.8 32-32 32h-224c-19.2 0-32-12.8-32-32v-422.4c0-19.2 12.8-32 32-32h224c19.2 0 32 12.8 32 32s-12.8 32-32 32z"  horiz-adv-x="1024" />

    
    <glyph glyph-name="user" unicode="&#58899;" d="M768 211.2c6.4-6.4 12.8-6.4 19.2-6.4 6.4 0 19.2 6.4 19.2 12.8 6.4 12.8 6.4 32-6.4 38.4-44.8 32-96 57.6-147.2 70.4 32 12.8 57.6 32 83.2 57.6 57.6 57.6 89.6 134.4 89.6 211.2 0 76.8-32 153.6-89.6 211.2-57.6 57.6-134.4 89.6-217.6 89.6s-153.6-32-211.2-89.6c-57.6-51.2-89.6-128-89.6-211.2 0-76.8 32-153.6 89.6-211.2 25.6-25.6 57.6-51.2 96-64-64-19.2-128-57.6-179.2-108.8-83.2-83.2-128-198.4-128-313.6 0-12.8 12.8-25.6 25.6-25.6s25.6 12.8 25.6 25.6c0 217.6 172.8 390.4 390.4 390.4 83.2 0 166.4-25.6 230.4-76.8zM275.2 595.2c0 134.4 108.8 243.2 249.6 243.2 134.4 0 249.6-108.8 249.6-243.2 0-134.4-108.8-243.2-249.6-243.2s-249.6 108.8-249.6 243.2zM921.6 76.8c-12.8 12.8-25.6 12.8-38.4 0l-140.8-140.8-147.2 147.2c-6.4 0-12.8 6.4-12.8 6.4h-12.8c-6.4 0-6.4-6.4-6.4-6.4l-160-160c-12.8-12.8-12.8-25.6 0-38.4 12.8-6.4 19.2-12.8 25.6-12.8 6.4 0 12.8 0 19.2 6.4l140.8 140.8 140.8-140.8c6.4-6.4 12.8-6.4 19.2-6.4h6.4c6.4 0 12.8 6.4 12.8 6.4l160 160c6.4 12.8 6.4 32-6.4 38.4z"  horiz-adv-x="1024" />

    
    <glyph glyph-name="chanpinfenxi" unicode="&#58881;" d="M185.6 870.4c-64 0-108.8-51.2-108.8-108.8 0-57.6 51.2-108.8 108.8-108.8 64 0 108.8 51.2 108.8 108.8 6.4 57.6-44.8 108.8-108.8 108.8z m243.2-480l102.4 32h6.4l6.4-6.4 76.8-44.8 64 179.2 12.8 25.6 19.2-19.2 51.2-57.6L851.2 640l32-19.2-96-166.4-12.8-19.2-12.8 19.2-51.2 57.6-57.6-172.8-12.8-12.8-19.2 6.4-83.2 57.6-96-32-12.8 32z m19.2-435.2h339.2v-57.6H448v57.6z m211.2 192H1024V838.4H352V768h601.6v-550.4H384v-70.4h179.2v-172.8h96v172.8zM0 332.8l70.4-51.2-25.6-384h102.4l19.2 326.4h44.8l19.2-326.4h96l-12.8 384-12.8 236.8 230.4 6.4 51.2 89.6L320 620.8H204.8l6.4-12.8-6.4-25.6 25.6-179.2-44.8-38.4-38.4 44.8 25.6 179.2-12.8 19.2 6.4 12.8H51.2L0 332.8z"  horiz-adv-x="1024" />

    
    <glyph glyph-name="neirongfenxi" unicode="&#58886;" d="M960 896H64C32 896 0 864 0 832v-620.8c0-38.4 32-64 64-64h896c38.4 0 64 32 64 64V832c0 32-32 64-64 64m0-665.6c0-12.8-12.8-19.2-19.2-19.2H89.6c-12.8 0-19.2 12.8-19.2 19.2v576c-6.4 12.8 6.4 25.6 19.2 25.6h844.8c12.8 0 25.6-12.8 25.6-25.6v-576m-268.8-204.8c0 12.8-12.8 19.2-19.2 19.2H358.4c-12.8 0-19.2-12.8-19.2-19.2V-64H108.8v-64h800v64h-224l6.4 89.6M780.8 320L633.6 467.2l-6.4 12.8-12.8-12.8-89.6-89.6-147.2 160-12.8 12.8-12.8-12.8-198.4-204.8 25.6-25.6 185.6 192L512 339.2l12.8-12.8 12.8 12.8 83.2 89.6 153.6-160 19.2-19.2 6.4 25.6 64 275.2-32 6.4-51.2-236.8M454.4 620.8s64-140.8 64-172.8c0 0 32 115.2 57.6 166.4 12.8 6.4 19.2 25.6 19.2 44.8 0 44.8-32 76.8-76.8 76.8-38.4 6.4-76.8-32-76.8-76.8 0-12.8 6.4-25.6 12.8-38.4m0 0z"  horiz-adv-x="1024" />

    
    <glyph glyph-name="baobiao" unicode="&#58890;" d="M1024 448V768c0 70.4-57.6 128-128 128H128C57.6 896 0 838.4 0 768v-768c0-70.4 57.6-128 128-128h768c70.4 0 128 57.6 128 128v166.4c0 25.6-6.4 44.8-32 44.8-19.2 0-32-12.8-32-44.8V0c0-38.4-25.6-64-64-64H128c-38.4 0-64 32-64 64V768c0 32 32 64 64 64h768c38.4 0 64-32 64-64v-320c0-25.6 19.2-38.4 32-38.4 19.2 0 32 12.8 32 38.4zM358.4 326.4c0 25.6-19.2 44.8-38.4 44.8h-6.4c-19.2 0-38.4-19.2-38.4-44.8v-108.8c0-25.6 19.2-44.8 38.4-44.8H320c19.2 0 38.4 19.2 38.4 44.8V326.4zM556.8 428.8c0 25.6-19.2 51.2-44.8 51.2-25.6 0-44.8-25.6-44.8-51.2v-211.2c0-25.6 19.2-51.2 44.8-51.2 25.6 0 44.8 25.6 44.8 51.2V428.8zM665.6 588.8v-371.2c0-25.6 19.2-51.2 44.8-51.2 25.6 0 44.8 25.6 44.8 51.2V588.8c0 25.6-19.2 51.2-44.8 51.2-25.6 0-44.8-19.2-44.8-51.2z"  horiz-adv-x="1024" />

    
    <glyph glyph-name="gexingdingzhi" unicode="&#58891;" d="M33.86816 838.4c-64-70.4-25.6-147.2 19.2-192 12.8-6.4 19.2-6.4 25.6 0l147.2 153.6c6.4 6.4 6.4 19.2 0 25.6C181.06816 864 104.26816 902.4 33.86816 838.4z m38.4-38.4c19.2 19.2 57.6 32 96 0L72.26816 704c-32 38.4-19.2 76.8 0 96zM238.66816 748.8L129.86816 633.6c-12.8-12.8-12.8-38.4 0-57.6l153.6-121.6c19.2-12.8 44.8-12.8 57.6 0l76.8 83.2c12.8 19.2 12.8 44.8 0 57.6l-128 153.6c-12.8 12.8-38.4 12.8-51.2 0zM373.06816 576c6.4-6.4 6.4-12.8 0-12.8l-51.2-57.6c-6.4-6.4-12.8-6.4-12.8 0l-128 96c-6.4 6.4-6.4 12.8 0 12.8L257.86816 691.2c6.4 6.4 12.8 6.4 12.8 0L373.06816 576zM699.46816 192l-64-64 140.8-76.8 140.8-76.8-83.2 140.8-76.8 140.8-57.6-64z m115.2-115.2l-89.6 64 25.6 25.6 64-89.6zM641.86816 704l102.4-102.4-38.4-38.4-102.4 102.4 38.4 38.4zM718.66816 780.8l102.4-102.4-38.4-38.4-102.4 102.4 38.4 38.4zM565.06816 627.2l102.4-102.4-38.4-38.4-102.4 102.4 38.4 38.4zM417.86816 473.6l102.4-102.4-38.4-38.4-102.4 102.4 38.4 38.4zM264.26816 313.6l102.4-96-38.4-38.4-102.4 96 38.4 38.4zM341.06816 390.4l102.4-96-38.4-38.4-102.4 96 38.4 38.4zM187.46816 236.8l102.4-96-38.4-44.8-102.4 102.4 38.4 38.4zM763.46816 832l-6.4-6.4 211.2-204.8-32-32-44.8-51.2-38.4-38.4-38.4-38.4-38.4-38.4-38.4-38.4-12.8-12.8-25.6-25.6-211.2 204.8-32-38.4 211.2-204.8-32-32-51.2-51.2-38.4-38.4-32-38.4-38.4-38.4-38.4-38.4-6.4-6.4-32-32-38.4-38.4-12.8-12.8-25.6-25.6-211.2 204.8-6.4-6.4c-19.2-19.2-12.8-44.8 0-57.6l192-185.6c19.2-19.2 44.8-12.8 57.6 0L1013.06816 588.8c19.2 19.2 12.8 44.8 0 57.6l-192 185.6c-12.8 12.8-38.4 12.8-57.6 0z"  horiz-adv-x="1025" />

    
    <glyph glyph-name="guanggao" unicode="&#58892;" d="M512 896C230.4 896 0 665.6 0 384s230.4-512 512-512 512 230.4 512 512-230.4 512-512 512z m6.4-972.8C262.4-76.8 57.6 128 57.6 384S262.4 844.8 518.4 844.8 972.8 640 972.8 384s-204.8-460.8-454.4-460.8zM326.4 550.4L192 204.8h51.2l32 96h140.8l32-96h51.2L377.6 550.4h-51.2m-32-217.6l51.2 140.8c0 6.4 6.4 12.8 6.4 25.6 0-12.8 6.4-19.2 6.4-25.6l51.2-140.8H294.4m492.8 166.4c-32 32-76.8 44.8-128 44.8H556.8v-345.6h96c57.6 0 102.4 19.2 134.4 51.2s51.2 76.8 51.2 128-19.2 96-51.2 121.6m-32-224c-25.6-25.6-57.6-38.4-102.4-38.4h-51.2V505.6h51.2c38.4 0 76.8-12.8 102.4-32 25.6-19.2 38.4-51.2 38.4-96-6.4-44.8-12.8-76.8-38.4-102.4m0 0z"  horiz-adv-x="1024" />

    
    <glyph glyph-name="wode" unicode="&#58893;" d="M512 896C230.4 896 0 665.6 0 384c0-108.8 32-211.2 89.6-288 0 0 19.2-25.6 38.4-12.8s6.4 38.4 6.4 38.4c-19.2 25.6-32 51.2-44.8 83.2C70.4 262.4 57.6 320 57.6 384c0 64 12.8 121.6 38.4 179.2 19.2 51.2 51.2 102.4 96 140.8 44.8 44.8 89.6 76.8 147.2 96C390.4 825.6 448 838.4 512 838.4c64 0 121.6-12.8 179.2-38.4 44.8-19.2 89.6-51.2 128-83.2l25.6-25.6c38.4-38.4 64-83.2 89.6-134.4 19.2-51.2 32-108.8 32-172.8 0-64-12.8-121.6-38.4-179.2-25.6-51.2-57.6-102.4-96-147.2l-19.2-19.2c-6.4 64-38.4 115.2-89.6 160-25.6 25.6-64 44.8-96 57.6 51.2 38.4 89.6 96 89.6 166.4C716.8 550.4 627.2 640 512 640 396.8 640 307.2 550.4 307.2 435.2c0-70.4 32-128 89.6-166.4-38.4-12.8-70.4-32-96-57.6-57.6-51.2-89.6-121.6-89.6-198.4v-25.6c0-6.4 0-6.4 6.4-12.8l12.8-12.8C307.2-96 403.2-128 512-128c281.6 0 512 230.4 512 512s-230.4 512-512 512zM364.8 435.2c0 38.4 12.8 76.8 44.8 102.4 25.6 25.6 64 44.8 102.4 44.8 38.4 0 76.8-12.8 102.4-44.8 25.6-25.6 44.8-64 44.8-102.4s-12.8-76.8-44.8-102.4c-25.6-32-64-44.8-102.4-44.8-38.4 0-76.8 12.8-102.4 44.8-32 25.6-44.8 64-44.8 102.4zM512-70.4c-64 0-121.6 12.8-179.2 38.4-25.6 12.8-44.8 25.6-70.4 38.4v6.4c0 121.6 108.8 217.6 243.2 217.6s243.2-96 243.2-217.6v-6.4c-19.2-12.8-44.8-25.6-70.4-38.4-44.8-25.6-102.4-38.4-166.4-38.4z"  horiz-adv-x="1024" />

    
    <glyph glyph-name="huikan" unicode="&#58894;" d="M672 812.8c-6.4-19.2 12.8-38.4 32-44.8 19.2-6.4 38.4 6.4 44.8 32 6.4 19.2-6.4 38.4-32 44.8-19.2 6.4-38.4-6.4-44.8-32zM512 806.4c19.2-6.4 38.4 6.4 44.8 32 6.4 19.2-6.4 38.4-32 44.8-19.2 6.4-38.4-6.4-44.8-32 0-19.2 12.8-38.4 32-44.8z m435.2-396.8c-6.4-19.2 6.4-38.4 32-44.8 19.2-6.4 38.4 6.4 44.8 32 6.4 19.2-6.4 38.4-32 44.8-19.2 0-38.4-12.8-44.8-32z m-140.8 300.8c-6.4-19.2 6.4-38.4 32-44.8 19.2-6.4 38.4 6.4 44.8 32 6.4 19.2-6.4 38.4-32 44.8-19.2 0-38.4-12.8-44.8-32zM902.4 576c-6.4-19.2 12.8-38.4 32-44.8 19.2-6.4 44.8 6.4 44.8 32 6.4 19.2-12.8 38.4-32 44.8-19.2 0-44.8-12.8-44.8-32zM403.2 870.4C211.2 832 51.2 684.8 12.8 480c-57.6-268.8 121.6-531.2 396.8-588.8 275.2-57.6 537.6 115.2 595.2 384l-70.4 12.8c-44.8-230.4-275.2-384-512-332.8-236.8 44.8-390.4 275.2-345.6 505.6 32 166.4 160 288 313.6 326.4L403.2 870.4zM716.8 409.6L435.2 576c-12.8 6.4-25.6 6.4-32 0-12.8-6.4-19.2-19.2-19.2-25.6v-326.4c0-12.8 6.4-19.2 12.8-25.6 12.8-6.4 12.8-6.4 19.2-6.4 6.4 0 12.8 0 12.8 6.4l281.6 166.4c12.8 6.4 12.8 12.8 12.8 25.6 6.4 6.4 0 12.8-6.4 19.2z"  horiz-adv-x="1025" />

    
    <glyph glyph-name="dianbo" unicode="&#58897;" d="M652.376939 653.530742C652.376939 787.526911 550.28462 896 416.288451 896S173.819192 787.526911 173.819192 653.530742c0-63.8077 25.52308-121.234629 63.8077-165.900019 12.76154-12.76154 31.90385-12.76154 44.66539 0 12.76154 12.76154 12.76154 31.90385 0 44.66539-25.52308 38.28462-44.66539 76.569239-44.66539 121.234629C237.626892 755.623061 320.576901 832.1923 416.288451 832.1923 512 832.1923 588.569239 755.623061 588.569239 653.530742c0-19.14231 12.76154-31.90385 31.90385-31.90385s31.90385 19.14231 31.90385 31.90385zM384.384601 283.446084V608.865352c0 19.14231 19.14231 31.90385 38.28462 31.90385s38.28462-19.14231 38.284619-38.28462v-267.992338c0-19.14231 12.76154-31.90385 31.90385-31.90385s31.90385 12.76154 31.90385 31.90385V608.865352c0 51.04616-44.66539 95.711549-102.092319 95.711549C365.242291 704.576901 320.576901 659.911512 320.576901 608.865352v-325.419268c0-19.14231 12.76154-31.90385 31.90385-31.903849s31.90385 12.76154 31.90385 31.903849zM639.615399 474.869183c6.38077 6.38077 19.14231 6.38077 31.90385 6.38077 31.90385 0 51.04616-25.52308 51.04616-51.04616v-127.615399c0-19.14231 12.76154-31.90385 31.903849-31.90385s31.90385 12.76154 31.90385 31.90385v127.615399c0 63.8077-51.04616 114.853859-114.853859 114.853859-25.52308 0-44.66539-6.38077-63.8077-19.142309-19.14231-12.76154-25.52308-31.90385-12.76154-44.66539s25.52308-19.14231 44.66539-6.38077zM512 506.773033c6.38077 6.38077 19.14231 6.38077 25.52308 6.38077 31.90385 0 51.04616-25.52308 51.046159-51.04616v-127.615399c0-19.14231 12.76154-31.90385 31.90385-31.90385s31.90385 12.76154 31.90385 31.90385v127.615399c0 63.8077-51.04616 114.853859-114.853859 114.853859-25.52308 0-44.66539-6.38077-63.8077-19.14231-12.76154-12.76154-19.14231-31.90385-6.38077-44.665389 6.38077-12.76154 25.52308-19.14231 44.66539-6.38077zM767.230798 417.442253c6.38077 6.38077 19.14231 6.38077 25.52308 6.38077 25.52308 0 51.04616-25.52308 51.04616-51.046159v-153.138479c0-19.14231 12.76154-31.90385 31.903849-31.90385s31.90385 12.76154 31.90385 31.90385V372.776864c0 63.8077-51.04616 114.853859-114.853859 114.853859-25.52308 0-44.66539-6.38077-63.8077-19.14231-12.76154-12.76154-19.14231-31.90385-6.380769-44.66539 12.76154-12.76154 31.90385-19.14231 44.665389-6.38077zM365.242291 308.969164c-6.38077 0-6.38077 0 0 0-6.38077 0-6.38077 0-12.76154 6.38077-25.52308 12.76154-31.90385 12.76154-51.04616 31.90385-63.8077 44.66539-121.234629 38.28462-159.519248-6.38077-57.42693-63.8077-38.28462-146.757709 44.665389-223.326948 76.569239-70.18847 108.473089-95.711549 172.280789-146.757709 121.234629-95.711549 242.469258-127.615399 401.988507-70.18847 82.950009 31.90385 146.757709 127.615399 146.757709 185.042329v70.188469V257.923005c0 19.14231-12.76154 31.90385-31.90385 31.903849s-31.90385-12.76154-31.903849-31.903849v-172.280789c0-31.90385-51.04616-102.092319-102.09232-121.234629-133.996169-51.04616-236.088488-25.52308-338.180807 57.426929-70.18847 51.04616-95.711549 76.569239-172.280789 146.757709-57.42693 51.04616-70.18847 95.711549-38.28462 127.615399 19.14231 19.14231 38.28462 25.52308 70.18847 0 12.76154-12.76154 25.52308-19.14231 38.284619-25.52308 6.38077 0 6.38077-6.38077 12.76154-6.38077l6.38077-6.380769h12.76154c12.76154-6.38077 31.90385-6.38077 44.66539 12.761539 6.38077 6.38077 0 25.52308-12.76154 38.28462z"  horiz-adv-x="1024" />

    
    <glyph glyph-name="shiyi" unicode="&#58898;" d="M979.2 307.2c-19.2 0-38.4-19.2-38.4-38.4s19.2-38.4 38.4-38.4 38.4 19.2 38.4 38.4-19.2 38.4-38.4 38.4z m-38.4 153.6c0-19.2 19.2-38.4 38.4-38.4s38.4 19.2 38.4 38.4-19.2 38.4-38.4 38.4c-25.6 6.4-38.4-12.8-38.4-38.4z m32 121.6C902.4 768 723.2 896 512 896 236.8 896 6.4 665.6 6.4 384s224-512 505.6-512v70.4c-243.2 0-435.2 198.4-435.2 441.6 0 243.2 192 441.6 435.2 441.6 172.8 0 320-102.4 390.4-243.2h70.4zM684.8 166.4v-121.6c6.4 12.8 19.2 25.6 32 32 12.8 6.4 25.6 12.8 38.4 12.8 25.6 0 44.8-6.4 57.6-19.2 12.8-12.8 19.2-32 19.2-64V-128h-32v128c0 19.2-6.4 32-12.8 44.8-12.8 12.8-25.6 12.8-38.4 12.8-19.2 0-32-6.4-38.4-19.2-12.8-12.8-19.2-32-19.2-51.2V-128h-32v294.4h25.6z m313.6-83.2v-32c-12.8 0-19.2 6.4-32 6.4-19.2 0-32-6.4-38.4-19.2-12.8-12.8-19.2-32-19.2-51.2V-128h-32v211.2h32v-38.4c6.4 12.8 12.8 19.2 19.2 25.6 12.8 6.4 25.6 12.8 38.4 12.8 12.8 6.4 19.2 0 32 0zM723.2 409.6L441.6 576c-12.8 6.4-19.2 6.4-32 0-6.4-6.4-12.8-19.2-12.8-25.6v-326.4c0-12.8 6.4-19.2 12.8-25.6 6.4-6.4 12.8-6.4 12.8-6.4 6.4 0 12.8 0 12.8 6.4l281.6 166.4c12.8 6.4 12.8 12.8 12.8 25.6 6.4 6.4 0 12.8-6.4 19.2z"  horiz-adv-x="1024" />

    
    <glyph glyph-name="yonghuhuaxiang" unicode="&#58900;" d="M275.346429 530.792372c6.396042-63.960424 31.980212-121.524807 70.356467-166.297103 44.772297-51.16834 102.336679-76.752509 159.901062-76.75251s108.732722 25.58417 153.505018 76.75251c38.376255 44.772297 63.960424 102.336679 70.356467 166.297103l6.396043 12.792085c0 6.396042 31.980212 89.544594 25.58417 172.693146-6.396042 102.336679-76.752509 166.297104-76.75251 166.297104l-12.792085 12.792085-38.376254-19.188128C595.148552 882.574707 448.039576 920.950962 358.494981 869.782622 243.366217 812.21824 243.366217 703.485518 249.76226 671.505306c0-63.960424 25.58417-134.316891 25.584169-140.712934z m230.257529-204.673358C422.455406 326.119014 326.514769 422.059651 320.118727 543.584457l25.584169 89.544594h108.732722c76.752509 6.396042 153.505019 25.58417 191.881273 38.376255l38.376255-108.732722v-12.792084c0-121.524807-95.940637-223.861486-179.089188-223.861486zM377.683109 831.406367C409.663321 844.198452 448.039576 850.594495 486.41583 850.594495c70.356467 0 140.712934-19.188127 147.108977-19.188128h6.396042l25.58417 12.792085c19.188127-19.188127 51.16834-63.960424 51.168339-127.920849 0-31.980212 0-63.960424-6.396042-89.544594l-38.376255 102.336679-19.188127-6.396042s-108.732722-31.980212-198.277316-44.772297c-76.752509-6.396042-115.128764 0-115.128764 0H320.118727l-19.188128-63.960425c-6.396042 19.188127-6.396042 38.376255-12.792085 57.564382 0 31.980212 6.396042 115.128764 89.544595 159.901061z m575.64382-953.010325L767.841698 83.069401c-6.396042 6.396042-12.792085 6.396042-12.792085 0l-38.376255-38.376255c-6.396042-6.396042-6.396042-12.792085 0-12.792085l166.297104-159.901061h63.960425c6.396042 0 6.396042 6.396042 6.396042 6.396042z m-281.425868 319.802123c-19.188127 6.396042-31.980212 6.396042-44.772297 31.980212l-12.792085 25.58417-12.792085-31.980212c-12.792085-31.980212-12.792085-89.544594 6.396043-127.920849 12.792085-19.188127 31.980212-31.980212 51.168339-31.980213h6.396043c19.188127 0 31.980212 6.396042 44.772297 19.188128 12.792085 12.792085 19.188127 31.980212 19.188127 44.772297 0 19.188127-6.396042 31.980212-19.188127 44.772297-6.396042 19.188127-25.58417 19.188127-38.376255 25.58417z m19.188128-89.544594c-6.396042-6.396042-19.188127-12.792085-31.980213-6.396043-6.396042 0-19.188127 6.396042-25.584169 19.188128-12.792085 19.188127-12.792085 44.772297-12.792085 63.960424 12.792085-12.792085 31.980212-12.792085 44.772297-19.188127 12.792085 0 19.188127-6.396042 25.58417-12.792085 6.396042-6.396042 6.396042-12.792085 6.396042-25.58417 6.396042-6.396042 0-19.188127-6.396042-19.188127zM524.792085 428.455693h-19.188127c6.396042 31.980212 12.792085 76.752509 12.792084 83.148552 0 19.188127-6.396042 31.980212-12.792084 31.980212 0 6.396042-12.792085 12.792085-19.188128 6.396043-6.396042-6.396042-12.792085-12.792085-6.396042-25.58417 0 0 6.396042-6.396042 6.396042-19.188128 0-6.396042-12.792085-57.564382-19.188127-95.940636v-12.792085c0-6.396042 6.396042-6.396042 12.792085-6.396043h38.376254c6.396042 0 19.188127 6.396042 19.188128 19.188128 0 12.792085-6.396042 19.188127-12.792085 19.188127zM435.247491 569.168627h-19.188128c-12.792085 0-19.188127-12.792085-19.188127-19.188127s12.792085-19.188127 19.188127-19.188128h19.188128c12.792085 0 19.188127 12.792085 19.188127 19.188128 0 12.792085-6.396042 19.188127-19.188127 19.188127z m166.297103 0H575.960424c-12.792085 0-19.188127-12.792085-19.188127-19.188127s6.396042-25.58417 19.188127-25.58417h19.188128c12.792085 0 19.188127 12.792085 19.188127 19.188127 6.396042 19.188127 0 25.58417-12.792085 25.58417z m140.712934-652.39633H281.742472c6.396042 31.980212 12.792085 83.148552 38.376255 127.920849 0 6.396042 0 19.188127-12.792085 19.188127-6.396042 6.396042-19.188127 0-19.188128-6.396042-25.58417-57.564382-31.980212-108.732722-38.376254-140.712934H115.445368c12.792085 153.505019 172.693146 319.802122 390.15859 319.802123 19.188127 0 31.980212 0 51.168339-6.396043 12.792085 0 25.58417 6.396042 25.58417 19.188127 0 12.792085-6.396042 25.58417-19.188127 25.58417-19.188127 0-38.376255 6.396042-57.564382 6.396043-204.673358 0-434.930887-166.297104-434.930887-383.762547 0-12.792085 12.792085-19.188127 19.188127-19.188128h646.000288c12.792085 0 19.188127 12.792085 19.188127 19.188128 6.396042 6.396042-6.396042 19.188127-12.792085 19.188127z"  horiz-adv-x="1024" />

    
    <glyph glyph-name="zhibo" unicode="&#58901;" d="M979.2 684.8c-32 32-70.4 44.8-108.8 44.8h-204.8l57.6 96c12.8 19.2 6.4 38.4-12.8 51.2-19.2 12.8-38.4 6.4-51.2-12.8l-76.8-128H422.4L345.6 864C339.2 876.8 313.6 883.2 300.8 876.8c-19.2-12.8-25.6-38.4-12.8-51.2l57.6-96h-192c-38.4 0-76.8-19.2-108.8-44.8C12.8 652.8 0 614.4 0 576v-531.2c0-38.4 19.2-76.8 44.8-108.8 32-32 70.4-44.8 108.8-44.8h716.8c44.8 0 83.2 12.8 108.8 44.8 25.6 32 44.8 70.4 44.8 108.8V569.6c0 44.8-19.2 83.2-44.8 115.2z m-25.6-640c0-44.8-38.4-83.2-83.2-83.2H153.6c-44.8 0-83.2 38.4-83.2 83.2V569.6c0 44.8 38.4 83.2 83.2 83.2h716.8c44.8 0 83.2-38.4 83.2-83.2v-524.8zM716.8 345.6L422.4 518.4c-12.8 6.4-19.2 6.4-32 0s-19.2-19.2-19.2-32v-339.2c0-12.8 6.4-19.2 19.2-25.6 6.4 0 12.8-6.4 19.2-6.4 6.4 0 12.8 0 19.2 6.4l294.4 172.8c12.8 6.4 19.2 19.2 19.2 25.6-12.8 6.4-19.2 19.2-25.6 25.6z"  horiz-adv-x="1024" />

    
    <glyph glyph-name="yingyong" unicode="&#58903;" d="M774.4 416h-128c-51.2 0-96 44.8-96 96v128c0 51.2 44.8 96 96 96h128c51.2 0 96-44.8 96-96v-128c0-51.2-38.4-96-96-96z m-128 256c-19.2 0-32-19.2-32-32v-128c0-19.2 19.2-32 32-32h128c19.2 0 32 19.2 32 32v128c0 12.8-19.2 32-32 32h-128z m-332.8-646.4h-64c-51.2 0-96 44.8-96 96v128c0 19.2 6.4 44.8 32 70.4 19.2 19.2 44.8 32 70.4 32h64c32 0 57.6-12.8 70.4-32 19.2-19.2 25.6-38.4 25.6-64v-128c0-57.6-44.8-102.4-102.4-102.4z m-64 256c-6.4 0-12.8 0-19.2-6.4-6.4-6.4-6.4-19.2-6.4-19.2v-128c0-19.2 19.2-32 32-32h64c19.2 0 32 19.2 32 32v128c0 6.4 0 12.8-6.4 19.2l-6.4 6.4h-89.6z m128 128h-128c-19.2 0-51.2 12.8-70.4 38.4-19.2 19.2-25.6 38.4-25.6 64v128c0 25.6 12.8 51.2 32 70.4 19.2 19.2 44.8 32 76.8 32h128c19.2 0 51.2-12.8 70.4-38.4 19.2-19.2 25.6-38.4 25.6-64v-128c0-19.2-12.8-51.2-38.4-70.4-19.2-19.2-44.8-32-70.4-32z m-121.6 262.4c-12.8 0-19.2-6.4-25.6-6.4-6.4-6.4-6.4-19.2-6.4-19.2v-128c0-6.4 0-12.8 6.4-19.2l6.4-6.4c6.4-12.8 19.2-12.8 19.2-12.8h128c6.4 0 12.8 0 19.2 6.4l6.4 6.4c12.8 6.4 12.8 19.2 12.8 19.2v128c0 6.4 0 12.8-6.4 19.2l-6.4 6.4c-6.4 12.8-19.2 12.8-19.2 12.8h-134.4z m230.4-768c0 19.2-12.8 32-32 32h-288c-51.2 0-96 44.8-96 96v704c0 51.2 44.8 96 96 96h704c51.2 0 96-44.8 96-96v-275.2c0-19.2 12.8-32 32-32s32 12.8 32 32v275.2c0 89.6-70.4 160-160 160h-704c-89.6 0-160-70.4-160-160v-704c0-89.6 70.4-160 160-160h288c12.8 0 32 12.8 32 32z m19.2 128l121.6 121.6h236.8l147.2 147.2c12.8 12.8 12.8 32 0 44.8-12.8 12.8-32 12.8-44.8 0l-128-128H601.6l-140.8-134.4c-12.8-12.8-12.8-32 0-44.8 6.4-6.4 12.8-12.8 25.6-12.8 6.4-6.4 12.8 0 19.2 6.4z"  horiz-adv-x="1030" />

    
    <glyph glyph-name="quanwang-" unicode="&#58919;" d="M1024 723.2H364.8l6.4 25.6H224l-12.8-38.4-19.2-64-192-627.2h153.6l192 627.2h505.6l-204.8-627.2H960l-128 102.4 153.6 524.8 38.4 76.8zM313.6 352l-83.2-275.2h390.4L704 352H313.6z m192-211.2H364.8l51.2 160h140.8l-51.2-160zM345.6 467.2L320 390.4h384l25.6 76.8H582.4l12.8 32H704l25.6 76.8H614.4l12.8 38.4H524.8L512 576H409.6L384 499.2h108.8l-12.8-32H345.6z"  horiz-adv-x="1024" />

    
    <glyph glyph-name="quanwang-1" unicode="&#58920;" d="M992 697.6c-128-6.4-121.6-256-153.6-339.2-38.4-115.2-140.8-211.2-268.8-172.8-83.2 25.6-140.8 147.2-224 179.2-6.4 0 12.8 51.2-12.8 64-38.4 12.8-211.2 19.2-243.2 0-25.6 0-19.2-358.4-19.2-358.4v-108.8h883.2c19.2 0 38.4-12.8 38.4-38.4 0-19.2-12.8-38.4-38.4-38.4H38.4c-19.2 0-38.4 12.8-38.4 38.4V844.8C0 864 12.8 883.2 38.4 883.2c19.2 0 38.4-12.8 38.4-38.4v-569.6s0 128 25.6 153.6c12.8 12.8 57.6-12.8 70.4 0 121.6 64 236.8-6.4 320-108.8 51.2-64 153.6-108.8 224-32 51.2 57.6 64 147.2 76.8 217.6 25.6 115.2 51.2 256 192 262.4 51.2 6.4 51.2-64 6.4-70.4m0 0M294.4-70.4H83.2c-25.6 0-51.2 25.6-51.2 51.2V422.4c0 25.6 25.6 51.2 51.2 51.2h211.2c25.6 0 51.2-25.6 51.2-51.2v-441.6c6.4-25.6-19.2-51.2-51.2-51.2z m-76.8 204.8c12.8 38.4 32 70.4 44.8 96 12.8 25.6 25.6 51.2 32 76.8 12.8 25.6 19.2 44.8 25.6 64V384c0 12.8-6.4 19.2-25.6 19.2H108.8c-6.4 0-12.8 0-19.2-6.4 0-6.4-6.4-6.4-6.4-19.2 0-12.8 6.4-19.2 19.2-19.2h172.8l-153.6-339.2s0-6.4-6.4-6.4v-12.8c0-6.4 0-6.4 6.4-6.4 0 0 6.4-6.4 12.8-6.4s12.8 0 19.2 6.4l12.8 12.8c19.2 51.2 38.4 96 51.2 128z"  horiz-adv-x="1024" />

    
    <glyph glyph-name="quanwang-2" unicode="&#58921;" d="M569.6 896c32 0 51.2-6.4 64-25.6 12.8-12.8 19.2-38.4 19.2-70.4v-364.8c0-25.6 0-51.2 6.4-70.4 6.4-19.2 19.2-25.6 38.4-25.6h102.4c25.6 0 44.8-6.4 51.2-19.2 6.4-12.8 0-32-12.8-57.6-19.2-25.6-38.4-51.2-64-83.2l-76.8-96-76.8-96c-25.6-32-44.8-57.6-64-83.2-6.4-19.2-25.6-32-44.8-32-19.2 0-32 6.4-51.2 32-19.2 19.2-38.4 44.8-64 76.8s-51.2 57.6-76.8 89.6l-76.8 96c-25.6 32-44.8 57.6-64 83.2-19.2 25.6-32 51.2-25.6 64s19.2 25.6 51.2 25.6H320c19.2 0 32 6.4 38.4 19.2 12.8 12.8 19.2 25.6 19.2 44.8V486.4 595.2 710.4 800 832c0 12.8 6.4 25.6 6.4 32 6.4 6.4 12.8 12.8 25.6 19.2 12.8 6.4 25.6 12.8 38.4 12.8h121.6z"  horiz-adv-x="1024" />

    
    <glyph glyph-name="quanwang-3" unicode="&#58922;" d="M512 896C230.4 896 0 665.6 0 384s230.4-512 512-512 512 230.4 512 512-230.4 512-512 512z m0-928c-230.4 0-422.4 185.6-422.4 422.4s192 416 422.4 416c230.4 0 422.4-185.6 422.4-422.4s-192-416-422.4-416zM512 748.8C313.6 748.8 147.2 582.4 147.2 384s160-364.8 364.8-364.8 364.8 160 364.8 364.8c0 198.4-166.4 364.8-364.8 364.8z m0-659.2c-32 0-51.2 25.6-51.2 51.2 0 32 19.2 51.2 51.2 51.2s51.2-19.2 51.2-51.2c0-25.6-19.2-51.2-51.2-51.2z m96 281.6c-32-25.6-38.4-38.4-51.2-64 0-12.8 0-19.2-6.4-51.2H467.2c0 51.2 6.4 70.4 12.8 89.6 6.4 19.2 19.2 32 32 44.8l19.2 19.2 19.2 19.2c32 25.6 44.8 57.6 44.8 83.2 6.4 38.4-25.6 64-76.8 64-64 0-89.6-32-96-89.6H326.4c0 51.2 12.8 89.6 38.4 121.6 32 44.8 83.2 70.4 160 70.4 108.8 0 179.2-64 179.2-153.6-6.4-64-25.6-96-96-153.6z"  horiz-adv-x="1024" />

    
    <glyph glyph-name="quanwang-4" unicode="&#58923;" d="M512 896C230.4 896 0 665.6 0 384s230.4-512 512-512 512 230.4 512 512-230.4 512-512 512z m256-121.6v-19.2c0-51.2-6.4-96-12.8-140.8-32-6.4-57.6-32-57.6-70.4 0-19.2 6.4-38.4 19.2-51.2-19.2-38.4-32-76.8-57.6-108.8C576 486.4 518.4 608 492.8 748.8c51.2 32 108.8 57.6 172.8 76.8 38.4-12.8 70.4-32 102.4-51.2z m-96-460.8c44.8-38.4 83.2-76.8 134.4-102.4-51.2-6.4-102.4-12.8-153.6-12.8H582.4v12.8c32 32 57.6 70.4 89.6 102.4zM512 851.2c25.6 0 51.2 0 76.8-6.4-32-12.8-64-25.6-96-44.8V851.2H512z m128-499.2c-25.6-32-51.2-64-83.2-96-12.8 6.4-25.6 12.8-44.8 12.8-32 0-57.6-19.2-64-44.8-96 25.6-179.2 57.6-262.4 108.8 19.2 76.8 57.6 153.6 102.4 217.6h19.2c38.4 0 70.4 32 70.4 70.4 0 6.4 0 19.2-6.4 25.6 25.6 25.6 57.6 51.2 83.2 76.8C480 576 544 454.4 640 352z m-524.8-211.2C70.4 211.2 44.8 288 44.8 377.6c25.6-25.6 57.6-44.8 83.2-64-6.4-51.2-19.2-102.4-19.2-160 6.4-6.4 6.4-12.8 6.4-12.8z m32 217.6L51.2 435.2C76.8 640 236.8 812.8 441.6 844.8c0-25.6 6.4-51.2 6.4-76.8-38.4-25.6-76.8-57.6-108.8-89.6-12.8 6.4-25.6 6.4-38.4 6.4-38.4 0-70.4-32-70.4-70.4 0-19.2 6.4-32 19.2-44.8-44.8-64-83.2-134.4-102.4-211.2z m19.2-288c0 25.6-6.4 51.2-6.4 76.8 0 44.8 6.4 89.6 12.8 128 83.2-51.2 172.8-83.2 268.8-108.8v-6.4c-83.2-51.2-172.8-89.6-275.2-102.4 6.4 12.8 6.4 12.8 0 12.8zM512-83.2c-115.2 0-217.6 44.8-300.8 108.8 96 19.2 185.6 57.6 262.4 108.8 12.8-6.4 25.6-6.4 38.4-6.4 25.6 0 44.8 12.8 57.6 25.6 25.6 0 57.6-6.4 83.2-6.4 76.8 0 147.2 6.4 217.6 25.6 19.2-6.4 32-19.2 51.2-19.2-83.2-140.8-236.8-236.8-409.6-236.8z m358.4 307.2c-64 32-128 76.8-179.2 128 25.6 38.4 44.8 83.2 64 121.6h6.4c38.4 0 70.4 32 70.4 70.4 0 25.6-19.2 51.2-38.4 64 6.4 44.8 12.8 83.2 12.8 128 102.4-83.2 160-211.2 160-352 0-44.8-6.4-89.6-19.2-128-19.2-12.8-44.8-25.6-76.8-32z"  horiz-adv-x="1024" />

    
    <glyph glyph-name="quanwang-5" unicode="&#58924;" d="M569.6-128c32 0 51.2 6.4 64 25.6 12.8 12.8 19.2 38.4 19.2 70.4v70.4 102.4 108.8 83.2c0 25.6 0 51.2 6.4 70.4 6.4 19.2 19.2 25.6 38.4 25.6h102.4c25.6 0 44.8 6.4 51.2 19.2 6.4 12.8 0 32-12.8 57.6-19.2 25.6-38.4 51.2-64 83.2l-76.8 96-76.8 96c-25.6 32-44.8 57.6-64 83.2C550.4 883.2 531.2 896 512 896c-12.8 0-32-6.4-44.8-32-19.2-19.2-38.4-44.8-64-76.8s-51.2-57.6-76.8-89.6c-25.6-32-44.8-64-70.4-96-25.6-32-44.8-57.6-64-83.2-19.2-25.6-32-51.2-25.6-64s19.2-25.6 51.2-25.6H332.8c19.2 0 32-6.4 38.4-19.2 0-12.8 6.4-25.6 6.4-44.8V-64c0-12.8 6.4-19.2 12.8-32 6.4-6.4 12.8-12.8 25.6-19.2 6.4-6.4 19.2-12.8 32-12.8h121.6z"  horiz-adv-x="1024" />

    
    <glyph glyph-name="quanwang-6" unicode="&#58925;" d="M889.6 716.8C800 806.4 684.8 851.2 556.8 851.2s-243.2-51.2-332.8-134.4c-83.2-83.2-128-185.6-134.4-294.4H0l64-108.8 64-108.8 64 108.8 64 108.8H153.6c19.2 204.8 192 371.2 403.2 371.2C780.8 787.2 960 608 960 384c0-224-179.2-403.2-403.2-403.2-108.8 0-217.6 44.8-294.4 128-12.8 12.8-32 12.8-44.8 0-12.8-12.8-12.8-32 0-44.8 44.8-44.8 96-83.2 153.6-108.8 57.6-25.6 121.6-38.4 185.6-38.4 121.6 0 243.2 51.2 332.8 134.4C972.8 140.8 1024 262.4 1024 384c0 121.6-51.2 243.2-134.4 332.8z m-345.6 6.4c-19.2 0-32-19.2-32-38.4v-313.6c0-6.4 0-19.2 12.8-25.6 0 0 0-6.4 6.4-6.4l198.4-198.4c6.4-6.4 12.8-6.4 25.6-6.4 6.4 0 19.2 0 25.6 6.4 12.8 12.8 12.8 32 0 44.8L576 384V684.8c0 19.2-19.2 38.4-32 38.4z"  horiz-adv-x="1024" />

    
    <glyph glyph-name="quanwang-7" unicode="&#58926;" d="M512 588.8C396.8 588.8 307.2 499.2 307.2 384c0-115.2 89.6-204.8 204.8-204.8 115.2 0 204.8 89.6 204.8 204.8 0 115.2-89.6 204.8-204.8 204.8z m0-358.4c-83.2 0-153.6 70.4-153.6 153.6S428.8 537.6 512 537.6c83.2 0 153.6-70.4 153.6-153.6S595.2 230.4 512 230.4z m512 51.2V486.4L876.8 512l-19.2 38.4 89.6 121.6-147.2 147.2-121.6-89.6-38.4 19.2L614.4 896H409.6L384 748.8l-38.4-19.2-121.6 89.6-147.2-147.2 89.6-121.6-19.2-38.4-147.2-25.6v-204.8l147.2-25.6c6.4-12.8 12.8-25.6 19.2-44.8l-89.6-121.6 147.2-147.2 121.6 89.6c12.8-6.4 25.6-12.8 38.4-12.8l25.6-147.2h204.8l25.6 147.2 38.4 19.2 121.6-89.6 147.2 147.2-89.6 121.6c6.4 12.8 12.8 25.6 12.8 38.4l153.6 25.6z m-198.4-12.8c-6.4-12.8-6.4-19.2-12.8-32-6.4-19.2-6.4-38.4 6.4-51.2l64-89.6-83.2-83.2-89.6 64c-6.4 6.4-19.2 12.8-32 12.8-6.4 0-19.2 0-25.6-6.4-12.8-6.4-19.2-12.8-32-12.8-19.2-6.4-32-19.2-32-38.4l-19.2-108.8H454.4l-19.2 108.8c-6.4 19.2-19.2 32-38.4 38.4-12.8 6.4-19.2 6.4-32 12.8-6.4 6.4-12.8 6.4-19.2 6.4-12.8 0-19.2-6.4-32-12.8l-89.6-64-83.2 83.2 64 83.2c12.8 12.8 12.8 38.4 6.4 51.2-6.4 6.4-6.4 19.2-12.8 32-6.4 25.6-25.6 44.8-38.4 44.8L51.2 326.4V441.6l108.8 19.2c19.2 0 32 19.2 38.4 38.4 0 12.8 6.4 19.2 12.8 32 6.4 19.2 6.4 38.4-6.4 51.2l-64 83.2 83.2 83.2 83.2-64c12.8 0 25.6-6.4 38.4-6.4 6.4 0 12.8 0 25.6 6.4s19.2 12.8 32 12.8c12.8 6.4 32 19.2 32 38.4L454.4 844.8h115.2l19.2-108.8c0-19.2 19.2-32 38.4-38.4 12.8 0 19.2-6.4 32-12.8 6.4-6.4 19.2-6.4 25.6-6.4 12.8 0 19.2 6.4 32 12.8l89.6 64 83.2-83.2-64-89.6c-12.8-19.2-12.8-38.4 0-57.6 6.4-6.4 6.4-19.2 12.8-32 6.4-19.2 19.2-32 38.4-38.4l108.8-19.2V320l-108.8-19.2c-32 6.4-44.8-12.8-51.2-32z"  horiz-adv-x="1024" />

    
    <glyph glyph-name="quanwang-8" unicode="&#58927;" d="M0 825.6h1024v-684.8H0zM480 358.4h70.4v-384H480zM358.4 6.4h313.6v-64H358.4z"  horiz-adv-x="1024" />

    
    <glyph glyph-name="quanwang-9" unicode="&#58928;" d="M115.2-128c-64 0-115.2 51.2-115.2 115.2s51.2 115.2 115.2 115.2 115.2-51.2 115.2-115.2c6.4-64-51.2-115.2-115.2-115.2zM115.2-38.4c-19.2 0-32 12.8-32 32V748.8c0 19.2 12.8 32 32 32s32-12.8 32-32v-755.2c0-19.2-12.8-32-32-32zM908.8 659.2c-64 0-115.2 51.2-115.2 115.2S844.8 889.6 908.8 889.6 1024 838.4 1024 774.4c0-57.6-51.2-115.2-115.2-115.2zM908.8-12.8c-19.2 0-32 12.8-32 32V691.2c0 19.2 12.8 32 32 32s32-12.8 32-32v-665.6c0-19.2-19.2-38.4-32-38.4zM512 268.8C448 268.8 396.8 320 396.8 384S448 499.2 512 499.2 627.2 448 627.2 384 576 268.8 512 268.8zM512-12.8c-19.2 0-32 12.8-32 32V748.8c0 19.2 12.8 32 32 32s32-12.8 32-32v-723.2c0-19.2-12.8-38.4-32-38.4z"  horiz-adv-x="1024" />

    
    <glyph glyph-name="quanwang-10" unicode="&#58929;" d="M1005.11296-57.6s-12.8-25.6-25.6 0c0 0-147.2 448-512 339.2v-140.8s-6.4-83.2-76.8-25.6L32.31296 416S-44.48704 454.4 38.71296 512l364.8 313.6s51.2 38.4 70.4-25.6v-153.6c-6.4 6.4 672-25.6 531.2-704z"  horiz-adv-x="1024" />

    
    <glyph glyph-name="weishi" unicode="&#58930;" d="M768 793.6l-192-57.6-57.6-108.8 121.6 25.6 128 140.8zM275.2 492.8l-121.6-6.4-134.4-147.2 179.2 51.2 76.8 102.4zM313.6 339.2l-313.6-300.8h275.2l128 307.2-89.6-6.4zM614.4 537.6l-51.2-76.8 332.8-32 128 243.2-409.6-134.4zM300.8 473.6l-6.4-128 332.8 217.6-128 38.4-70.4-44.8-115.2 192-38.4-25.6 115.2-192-89.6-57.6zM678.4 409.6l-134.4 38.4-115.2-76.8-38.4-128 96-153.6 294.4 192-102.4 128zM537.6 83.2l70.4-108.8 224 153.6-70.4 108.8-224-153.6z"  horiz-adv-x="1024" />

    
    <glyph glyph-name="cctv" unicode="&#58931;" d="M774.4 32h-230.4l-12.8 44.8-6.4 6.4h-25.6s-6.4 0-6.4-6.4l-12.8-44.8h-230.4c-6.4 0-32-25.6-32-25.6 0-6.4 6.4-12.8 12.8-12.8h569.6c6.4 0 12.8 6.4 12.8 12.8-6.4-6.4-25.6 25.6-38.4 25.6zM940.8 774.4h-857.6c-44.8 0-83.2-38.4-83.2-83.2v-486.4c0-44.8 38.4-83.2 83.2-83.2h857.6c44.8 0 83.2 38.4 83.2 83.2v486.4c0 44.8-38.4 83.2-83.2 83.2zM979.2 236.8c0-19.2-12.8-32-32-32h-870.4c-19.2 0-32 12.8-32 32v460.8c0 19.2 12.8 32 32 32h870.4c19.2 0 32-12.8 32-32v-460.8zM307.2 416l-6.4-19.2-19.2-19.2c-6.4-6.4-19.2-6.4-32-6.4h-57.6c-6.4 0-12.8 0-19.2 6.4-6.4 0-6.4 6.4-6.4 12.8v12.8l57.6 128c6.4 12.8 12.8 19.2 19.2 19.2 6.4 6.4 19.2 6.4 32 6.4h51.2c6.4 0 12.8 0 19.2-6.4s6.4-6.4 6.4-12.8v-19.2h-76.8l-6.4-6.4-6.4-19.2-32-64v-6.4h76.8zM467.2 416l-6.4-19.2-19.2-19.2c-6.4-6.4-19.2-6.4-32-6.4h-57.6c-6.4 0-12.8 0-19.2 6.4-6.4 0-6.4 6.4-6.4 12.8v12.8l57.6 128c6.4 12.8 12.8 19.2 19.2 19.2 6.4 6.4 19.2 6.4 32 6.4h51.2c6.4 0 12.8 0 19.2-6.4s6.4-6.4 6.4-12.8v-19.2h-76.8l-6.4-6.4-6.4-19.2-32-64v-6.4h76.8zM608 492.8l-51.2-121.6h-57.6l51.2 121.6h57.6zM665.6 518.4h-147.2l19.2 44.8h147.2l-19.2-44.8zM723.2 460.8l51.2 89.6 12.8 12.8c6.4 6.4 12.8 6.4 25.6 6.4h44.8l-19.2-44.8h-6.4c-6.4 0-12.8 0-19.2-6.4-6.4 0-6.4-6.4-12.8-12.8l-89.6-134.4h-32l-19.2 192h51.2l12.8-102.4z"  horiz-adv-x="1024" />

    
    <glyph glyph-name="bendi" unicode="&#58933;" d="M774.4 32h-230.4l-12.8 44.8-6.4 6.4h-25.6s-6.4 0-6.4-6.4l-12.8-44.8h-230.4c-6.4 0-32-25.6-32-25.6 0-6.4 6.4-12.8 12.8-12.8h569.6c6.4 0 12.8 6.4 12.8 12.8-6.4-6.4-25.6 25.6-38.4 25.6zM940.8 774.4h-857.6c-44.8 0-83.2-38.4-83.2-83.2v-486.4c0-44.8 38.4-83.2 83.2-83.2h857.6c44.8 0 83.2 38.4 83.2 83.2v486.4c0 44.8-38.4 83.2-83.2 83.2zM979.2 236.8c0-19.2-12.8-32-32-32h-870.4c-19.2 0-32 12.8-32 32v460.8c0 19.2 12.8 32 32 32h870.4c19.2 0 32-12.8 32-32v-460.8zM684.8 268.8h-345.6c-12.8 0-19.2 6.4-19.2 12.8-6.4 0-6.4 12.8 0 19.2l51.2 96c0 6.4 6.4 6.4 12.8 6.4 6.4-6.4 12.8-12.8 6.4-19.2l-44.8-89.6h332.8l-83.2 134.4-64-102.4s-6.4-6.4-12.8-6.4-12.8 0-19.2 12.8c-6.4 0-96 147.2-89.6 217.6 0 76.8 57.6 115.2 108.8 115.2 44.8 0 102.4-32 108.8-108.8 0-6.4-6.4-12.8-12.8-12.8s-12.8 6.4-12.8 12.8c-12.8 64-51.2 83.2-89.6 83.2-38.4 0-76.8-32-83.2-89.6 0-51.2 57.6-153.6 83.2-198.4l64 96c6.4 6.4 12.8 12.8 19.2 12.8 6.4 0 12.8-6.4 19.2-12.8l89.6-147.2c6.4-6.4 6.4-12.8 0-19.2 0-6.4-6.4-12.8-19.2-12.8zM518.4 486.4c-25.6 0-44.8 25.6-44.8 44.8 0 25.6 19.2 44.8 44.8 44.8 25.6 0 44.8-19.2 44.8-44.8 0-19.2-19.2-44.8-44.8-44.8zM518.4 556.8c-12.8 0-19.2-6.4-19.2-19.2 0-12.8 6.4-25.6 19.2-25.6 12.8 0 19.2 6.4 19.2 19.2 0 12.8-6.4 25.6-19.2 25.6z"  horiz-adv-x="1024" />

    
    <glyph glyph-name="allchannel" unicode="&#58934;" d="M480 486.4h19.2c-57.6-19.2-89.6-70.4-76.8-128 12.8-57.6 64-96 121.6-89.6-6.4 0-12.8-6.4-19.2-6.4-64-12.8-128 25.6-140.8 89.6-6.4 57.6 32 121.6 96 134.4zM505.6 256c-57.6 0-108.8 38.4-115.2 89.6-6.4 32-6.4 64 12.8 89.6 19.2 32 44.8 51.2 76.8 57.6h44.8l-25.6-6.4c-51.2-19.2-83.2-76.8-70.4-128 12.8-51.2 57.6-89.6 108.8-89.6h32l-19.2-6.4c-6.4-6.4-12.8-6.4-19.2-6.4h-25.6zM473.6 480c-25.6-6.4-44.8-25.6-64-44.8-12.8-25.6-19.2-57.6-12.8-83.2 12.8-51.2 57.6-89.6 108.8-89.6h12.8c-44.8 6.4-89.6 44.8-96 89.6-12.8 51.2 12.8 102.4 51.2 128zM448 428.8s0 6.4 6.4 12.8c-19.2-51.2 0-102.4 44.8-121.6 44.8-25.6 102.4-12.8 128 25.6 0-6.4-6.4-6.4-6.4-12.8-25.6-51.2-89.6-64-134.4-38.4-51.2 25.6-70.4 83.2-38.4 134.4zM531.2 275.2c-19.2 0-32 6.4-51.2 12.8-25.6 12.8-44.8 32-51.2 64 0 25.6 0 51.2 12.8 76.8 6.4 6.4 6.4 6.4 6.4 12.8l12.8 12.8-6.4-12.8c-12.8-51.2 6.4-102.4 44.8-121.6 12.8-6.4 32-12.8 44.8-12.8 32 0 64 12.8 76.8 38.4l19.2 19.2-6.4-19.2c0-6.4-6.4-6.4-6.4-12.8-19.2-32-57.6-57.6-96-57.6zM448 422.4c-12.8-19.2-12.8-44.8-6.4-70.4 6.4-25.6 25.6-44.8 44.8-57.6 12.8-6.4 32-12.8 44.8-12.8 32 0 70.4 19.2 83.2 44.8-12.8-12.8-38.4-25.6-64-25.6-19.2 0-38.4 6.4-51.2 12.8-38.4 19.2-64 64-51.2 108.8zM467.2 358.4c0 6.4-6.4 6.4-6.4 12.8 25.6-32 70.4-44.8 108.8-25.6 38.4 19.2 51.2 64 38.4 102.4 0 0 6.4-6.4 6.4-12.8 25.6-38.4 12.8-89.6-32-108.8-38.4-25.6-89.6-6.4-115.2 32zM544 313.6c-32 0-64 19.2-76.8 44.8 0 0-6.4 6.4-6.4 12.8l-0 0c12.8-19.2 38.4-32 70.4-32 12.8 0 25.6 6.4 38.4 12.8 38.4 19.2 51.2 64 38.4 102.4v6.4l6.4-12.8c0-6.4 6.4-6.4 6.4-12.8 12.8-19.2 12.8-44.8 6.4-64-6.4-19.2-19.2-38.4-44.8-44.8-12.8-6.4-25.6-12.8-38.4-12.8zM467.2 358.4c19.2-25.6 44.8-38.4 76.8-38.4 12.8 0 25.6 0 38.4 6.4 19.2 12.8 32 25.6 38.4 51.2 6.4 19.2 6.4 44.8-6.4 64 12.8-38.4-6.4-76.8-38.4-96-12.8-6.4-32-12.8-44.8-12.8-25.6 0-44.8 12.8-64 25.6zM556.8 512c0-12.8 6.4-19.2 19.2-19.2-12.8 0-19.2-6.4-19.2-19.2 0 12.8-6.4 19.2-19.2 19.2 6.4 0 12.8 12.8 19.2 19.2zM524.8 627.2c12.8 0 38.4 0 64-6.4 12.8 0 32-6.4 44.8-6.4 12.8 0 25.6-6.4 38.4-6.4 12.8 0 25.6-6.4 38.4-12.8 12.8-6.4 38.4-12.8 57.6-19.2 25.6-12.8 51.2-25.6 70.4-38.4 12.8-6.4 19.2-12.8 25.6-19.2 12.8-6.4 25.6-12.8 38.4-25.6 25.6-19.2 44.8-38.4 70.4-51.2 12.8-12.8 32-25.6 44.8-38.4 0 0 6.4-6.4 6.4-12.8v-19.2c0-6.4-6.4-12.8-6.4-12.8-32-25.6-57.6-57.6-96-76.8-38.4-25.6-76.8-51.2-121.6-76.8-19.2-6.4-38.4-19.2-57.6-25.6-19.2-6.4-32-12.8-51.2-12.8-12.8-6.4-32-6.4-44.8-12.8-51.2-12.8-108.8-12.8-160-12.8-19.2 0-38.4 0-57.6 6.4-12.8 0-25.6 6.4-38.4 6.4-12.8 0-25.6 6.4-38.4 6.4-12.8 6.4-32 6.4-44.8 12.8-19.2 6.4-38.4 12.8-51.2 19.2l-76.8 38.4c-51.2 32-89.6 64-128 96-12.8 12.8-32 25.6-44.8 38.4-6.4 12.8-6.4 25.6 0 38.4 32 32 70.4 64 108.8 89.6 38.4 25.6 70.4 51.2 115.2 70.4 19.2 6.4 38.4 19.2 64 25.6 6.4 0 25.6 6.4 38.4 12.8 19.2 6.4 32 6.4 51.2 12.8 38.4 6.4 83.2 12.8 140.8 12.8zM512 563.2h-25.6c-25.6 0-44.8-12.8-64-25.6-25.6-19.2-44.8-38.4-64-64-19.2-25.6-25.6-51.2-25.6-76.8v-19.2c0-6.4 6.4-19.2 6.4-25.6 0-12.8 6.4-25.6 12.8-38.4 12.8-25.6 25.6-44.8 51.2-64 19.2-19.2 38.4-25.6 64-32 19.2-6.4 32-6.4 51.2-6.4 25.6 0 44.8 6.4 64 12.8 25.6 12.8 51.2 25.6 70.4 51.2 25.6 25.6 38.4 64 44.8 96 6.4 32 0 70.4-19.2 96-12.8 25.6-25.6 44.8-44.8 57.6-25.6 12.8-44.8 25.6-70.4 32-19.2 6.4-32 6.4-51.2 6.4zM684.8 224c6.4 0 19.2 6.4 25.6 6.4 12.8 6.4 32 12.8 44.8 19.2s70.4 38.4 108.8 57.6c32 19.2 64 44.8 96 76.8 6.4 0 6.4 6.4 0 6.4-19.2 12.8-38.4 32-57.6 44.8-25.6 19.2-51.2 38.4-83.2 57.6-6.4 6.4-19.2 12.8-32 12.8-19.2 6.4-32 12.8-51.2 25.6-12.8 6.4-25.6 12.8-38.4 12.8-6.4 0-12.8 6.4-19.2 6.4 38.4-44.8 64-102.4 64-160 6.4-70.4-19.2-121.6-57.6-166.4zM339.2 224c-38.4 44.8-64 96-64 160s19.2 115.2 64 166.4h-6.4c0-6.4-12.8-12.8-19.2-12.8-25.6-6.4-44.8-19.2-64-25.6-38.4-19.2-76.8-38.4-108.8-64-25.6-19.2-44.8-38.4-70.4-57.6v-12.8c19.2-12.8 38.4-32 57.6-44.8 32-25.6 70.4-51.2 108.8-70.4 19.2-6.4 32-12.8 44.8-19.2 12.8-6.4 25.6-12.8 38.4-12.8 6.4-6.4 12.8-6.4 19.2-6.4z"  horiz-adv-x="1024" />

    
    <glyph glyph-name="ziban" unicode="&#58935;" d="M537.284 194.37c0-12.642 6.321-18.963 18.963-18.963h328.691c12.642 0 18.963 6.321 18.963 18.963s-6.321 18.963-18.963 18.963h-328.691c-6.321 6.321-18.963-6.321-18.963-18.963zM537.284 194.37zM884.938 67.951h-328.691c-12.642 0-18.963-6.321-18.963-18.963s6.321-18.963 18.963-18.963h328.691c12.642 0 18.963 6.321 18.963 18.963s-6.321 18.963-18.963 18.963zM884.938 67.951zM884.938-77.432h-328.691c-12.642 0-18.963-6.321-18.963-18.963s6.321-18.963 18.963-18.963h328.691c12.642 0 18.963 6.321 18.963 18.963 0 6.321-6.321 18.963-18.963 18.963zM884.938-77.432zM884.938-128h-328.691c-12.642 0-25.284 12.642-25.284 25.284s12.642 25.284 25.284 25.284h328.691c12.642 0 25.284-12.642 25.284-25.284s-12.642-25.284-25.284-25.284zM556.247-83.753c-6.321 0-12.642-6.321-12.642-12.642s6.321-12.642 12.642-12.642h328.691c6.321 0 12.642 6.321 12.642 12.642s-6.321 12.642-12.642 12.642h-328.691zM884.938 23.704h-328.691c-12.642 0-25.284 12.642-25.284 25.284s12.642 25.284 25.284 25.284h328.691c12.642 0 25.284-12.642 25.284-25.284s-12.642-25.284-25.284-25.284zM556.247 61.63c-6.321 0-12.642-6.321-12.642-12.642s6.321-12.642 12.642-12.642h328.691c6.321 0 12.642 6.321 12.642 12.642s-6.321 12.642-12.642 12.642h-328.691zM884.938 169.086h-328.691c-12.642 0-25.284 12.642-25.284 25.284s12.642 25.284 25.284 25.284h328.691c12.642 0 25.284-12.642 25.284-25.284s-12.642-25.284-25.284-25.284zM556.247 207.012c-6.321 0-12.642-6.321-12.642-12.642s6.321-12.642 12.642-12.642h328.691c6.321 0 12.642 6.321 12.642 12.642s-6.321 12.642-12.642 12.642h-328.691zM834.37 592.593c0 164.346-132.741 297.086-297.086 297.086s-297.086-132.741-297.086-297.086c0-132.741 82.173-246.519 208.593-284.444-158.025-63.21-284.444-208.593-322.37-379.259 0-12.642-6.321-18.963-6.321-31.605 0-6.321 6.321-12.642 12.642-12.642h6.321c6.321 0 12.642 0 18.963 6.321 0 6.321 0 18.963 6.321 25.284 37.926 176.988 164.346 322.37 335.012 372.938 6.321 0 12.642 6.321 31.605 6.321s37.926 0 50.568 6.321c145.383 18.963 252.84 139.062 252.84 290.765zM537.284 333.432c-145.383 0-259.16 113.778-259.16 259.16s113.778 259.16 259.16 259.16 259.16-113.778 259.16-259.16-120.099-259.16-259.16-259.16zM537.284 333.432zM139.062-128h-12.642l-18.963 18.963c0 12.642 6.321 18.963 6.321 31.605 37.926 164.346 151.704 309.728 303.407 379.259-107.457 50.568-189.63 164.346-189.63 290.765 0 170.667 139.062 303.407 303.407 303.407s303.407-139.062 303.407-303.407c0-151.704-107.457-278.123-252.84-303.407-6.321 0-25.284-6.321-44.247-6.321-18.963 0-25.284-6.321-31.605-6.321-170.667-56.889-297.086-195.951-328.691-366.617 0-6.321 0-12.642-6.321-25.284v-6.321c-12.642-6.321-25.284-6.321-31.605-6.321zM126.42-102.716c0-6.321 6.321-6.321 6.321-6.321h18.963c0 6.321 0 12.642 6.321 18.963 37.926 176.988 164.346 322.37 341.333 379.259h6.321c6.321 0 12.642 6.321 31.605 6.321s37.926 6.321 50.568 6.321c139.062 25.284 240.198 145.383 240.198 290.765 0 158.025-132.741 290.765-290.765 290.765s-290.765-132.741-290.765-290.765c0-126.42 82.173-240.198 202.272-278.123l18.963-6.321-18.963-6.321c-158.025-63.21-278.123-208.593-316.049-372.938 0-12.642-6.321-25.284-6.321-31.605zM537.284 320.79c-151.704 0-271.802 120.099-271.802 271.802 0 145.383 120.099 265.481 265.481 265.481 145.383 0 265.481-120.099 265.481-265.481 6.321-151.704-113.778-271.802-259.16-271.802zM537.284 845.432c-139.062 0-252.84-113.778-252.84-252.84s113.778-252.84 252.84-252.84 252.84 113.778 252.84 252.84-113.778 252.84-252.84 252.84z"  horiz-adv-x="1024" />

    
    <glyph glyph-name="zhiding" unicode="&#59181;" d="M948.544 894.08h-876.8a71.68 71.68 0 0 1 0-143.424h876.8a71.68 71.68 0 1 1 0 143.36zM562.88 676.352a72.192 72.192 0 0 1-5.248 4.736l-2.56 1.92-3.072 2.304-3.072 1.92-2.944 1.664-3.2 1.536-3.2 1.472c-1.024 0.448-2.112 0.768-3.2 1.152-1.088 0.448-2.24 0.896-3.392 1.216l-3.2 0.832-3.584 0.896-3.84 0.576-3.136 0.448a72.96 72.96 0 0 1-7.04 0.32h-1.024a71.488 71.488 0 0 1-51.712-20.992L96.832 313.728a71.68 71.68 0 0 1 101.376-101.376l242.304 242.24v-500.928a71.68 71.68 0 1 1 143.36 0V452.544l240.256-240.192a71.488 71.488 0 0 1 101.376 0 71.68 71.68 0 0 1 0 101.376L562.88 676.352z"  horiz-adv-x="1024" />

    
    <glyph glyph-name="all_trend-copy" unicode="&#59230;" d="M512 70.4c-268.8 0-499.2 313.6-499.2 313.6s230.4 313.6 499.2 313.6 499.2-313.6 499.2-313.6-230.4-313.6-499.2-313.6zM44.8 384c38.4-51.2 236.8-281.6 467.2-281.6s422.4 230.4 467.2 281.6c-44.8 51.2-236.8 281.6-467.2 281.6s-422.4-230.4-467.2-281.6zM512 64c-140.8 0-275.2 83.2-358.4 160-89.6 76.8-147.2 153.6-147.2 153.6l-6.4 6.4 6.4 6.4s57.6 76.8 153.6 160c76.8 64 211.2 153.6 352 153.6s275.2-83.2 358.4-160c89.6-76.8 147.2-153.6 153.6-160l-6.4-6.4s-57.6-76.8-153.6-160c-76.8-64-211.2-153.6-352-153.6zM19.2 384c32-38.4 243.2-300.8 492.8-300.8s460.8 262.4 492.8 300.8c-32 38.4-249.6 300.8-492.8 300.8-249.6-0-460.8-262.4-492.8-300.8zM512 96c-236.8 0-435.2 236.8-467.2 281.6l-6.4 6.4 6.4 6.4c32 44.8 230.4 281.6 467.2 281.6s435.2-236.8 467.2-281.6l6.4-6.4-6.4-6.4c-32-44.8-230.4-281.6-467.2-281.6zM57.6 384c44.8-57.6 236.8-275.2 454.4-275.2s409.6 217.6 454.4 275.2c-44.8 57.6-236.8 275.2-454.4 275.2s-409.6-217.6-454.4-275.2zM524.8 147.2c-128 0-236.8 108.8-236.8 236.8s108.8 236.8 236.8 236.8 236.8-108.8 236.8-236.8-102.4-236.8-236.8-236.8zM524.8 595.2c-115.2 0-211.2-96-211.2-211.2s96-211.2 211.2-211.2 211.2 96 211.2 211.2-96 211.2-211.2 211.2zM524.8 140.8c-134.4 0-243.2 108.8-243.2 243.2s108.8 243.2 243.2 243.2 243.2-108.8 243.2-243.2-108.8-243.2-243.2-243.2zM524.8 614.4c-128 0-230.4-102.4-230.4-230.4s102.4-230.4 230.4-230.4 230.4 102.4 230.4 230.4-102.4 230.4-230.4 230.4zM524.8 166.4c-121.6 0-217.6 96-217.6 217.6s96 217.6 217.6 217.6 217.6-96 217.6-217.6-96-217.6-217.6-217.6zM524.8 588.8c-108.8 0-204.8-89.6-204.8-204.8s89.6-204.8 204.8-204.8 204.8 89.6 204.8 204.8-89.6 204.8-204.8 204.8zM646.4 428.8c-32 0-57.6 25.6-57.6 57.6s25.6 57.6 57.6 57.6c32-6.4 57.6-32 57.6-64 0-25.6-25.6-51.2-57.6-51.2zM646.4 524.8c-25.6 0-44.8-19.2-44.8-44.8s19.2-44.8 44.8-44.8c25.6 0 44.8 19.2 44.8 44.8 0 25.6-19.2 44.8-44.8 44.8zM646.4 416c-38.4 0-64 32-64 64s32 64 64 64 64-32 64-64-32-64-64-64zM646.4 518.4c-19.2 0-38.4-19.2-38.4-38.4s19.2-32 38.4-32 38.4 19.2 38.4 38.4-19.2 32-38.4 32zM524.8 294.4c-44.8 0-89.6 38.4-89.6 89.6s38.4 89.6 89.6 89.6c51.2 0 89.6-38.4 89.6-89.6s-38.4-89.6-89.6-89.6zM524.8 460.8c-38.4 0-76.8-38.4-76.8-76.8s32-76.8 76.8-76.8c38.4 0 76.8 32 76.8 76.8 0 38.4-32 76.8-76.8 76.8zM524.8 288c-51.2 0-96 44.8-96 96s44.8 96 96 96 96-44.8 96-96-44.8-96-96-96zM524.8 448c-38.4 0-64-32-64-64s32-64 64-64 64 32 64 64-25.6 64-64 64z"  horiz-adv-x="1024" />

    
    <glyph glyph-name="shandongAPPtubiao-08-copy" unicode="&#59231;" d="M736 313.6c-76.8 44.8-172.8 70.4-275.2 70.4-256 0-460.8-160-460.8-358.4 0-57.6 19.2-108.8 44.8-153.6h480c-6.4 32-12.8 64-12.8 102.4 0 160 96 288 224 339.2zM435.2 435.2c128 0 230.4 102.4 230.4 230.4s-102.4 230.4-230.4 230.4-230.4-102.4-230.4-230.4 102.4-230.4 230.4-230.4zM921.6-76.8h51.2c12.8 0 25.6 12.8 25.6 25.6v307.2c0 12.8-12.8 25.6-25.6 25.6h-51.2c-12.8 0-25.6-12.8-25.6-25.6v-307.2c0-12.8 12.8-25.6 25.6-25.6zM768-76.8h51.2c12.8 0 25.6 12.8 25.6 25.6v230.4c0 12.8-12.8 25.6-25.6 25.6h-51.2c-12.8 0-25.6-12.8-25.6-25.6v-230.4c0-12.8 12.8-25.6 25.6-25.6zM614.4 128c-12.8 0-25.6-12.8-25.6-25.6v-153.6c0-12.8 12.8-25.6 25.6-25.6h51.2c12.8 0 25.6 12.8 25.6 25.6v153.6c0 12.8-12.8 25.6-25.6 25.6h-51.2zM998.4-76.8h-409.6c-12.8 0-25.6-12.8-25.6-25.6s12.8-25.6 25.6-25.6h409.6c12.8 0 25.6 12.8 25.6 25.6s-12.8 25.6-25.6 25.6z"  horiz-adv-x="1024" />

    
    <glyph glyph-name="view_analysis-copy" unicode="&#59232;" d="M198.4 32c-6.4 0-12.8 0-25.6 6.4-12.8 12.8-25.6 38.4-6.4 57.6l153.6 230.4c6.4 6.4 25.6 12.8 32 12.8h204.8l70.4 281.6c0 12.8 6.4 19.2 12.8 32l236.8 153.6c25.6 12.8 44.8 6.4 64-6.4 12.8-12.8 6.4-38.4-6.4-57.6l-230.4-147.2-76.8-294.4c0-12.8-12.8-32-38.4-32h-211.2l-147.2-217.6c-12.8-12.8-19.2-19.2-32-19.2zM985.6-121.6h-947.2c-25.6 0-38.4 12.8-38.4 38.4v934.4c0 25.6 12.8 38.4 38.4 38.4s38.4-12.8 38.4-38.4v-896h908.8c25.6 0 38.4-12.8 38.4-38.4s-25.6-38.4-38.4-38.4z"  horiz-adv-x="1024" />

    
    <glyph glyph-name="vod_lookback-copy" unicode="&#59233;" d="M972.8 838.4c-32 32-76.8 57.6-128 57.6h-659.2c-51.2 0-96-19.2-128-57.6-38.4-32-57.6-83.2-57.6-134.4v-428.8c0-51.2 19.2-102.4 51.2-134.4s76.8-57.6 128-57.6h652.8c51.2 0 96 19.2 128 57.6 32 32 51.2 83.2 51.2 134.4v428.8c12.8 51.2-6.4 102.4-38.4 134.4zM947.2 275.2c0-32-12.8-57.6-32-76.8-19.2-19.2-44.8-32-76.8-32h-652.8c-32 0-57.6 12.8-76.8 32s-32 44.8-32 76.8v428.8c0 32 12.8 57.6 32 76.8 19.2 19.2 44.8 32 76.8 32h652.8c25.6 0 57.6-12.8 76.8-32 19.2-19.2 32-44.8 32-76.8v-428.8zM985.6-12.8h-569.6c-6.4 12.8-12.8 32-25.6 38.4-12.8 19.2-38.4 25.6-64 25.6s-44.8-12.8-64-25.6c-6.4-6.4-12.8-25.6-19.2-38.4h-204.8c-12.8 0-25.6-12.8-25.6-25.6s12.8-25.6 25.6-25.6h204.8c6.4-12.8 12.8-25.6 25.6-38.4 12.8-19.2 38.4-25.6 64-25.6s44.8 12.8 64 25.6c12.8 12.8 19.2 25.6 25.6 38.4h569.6c12.8 0 25.6 12.8 25.6 25.6-6.4 12.8-19.2 25.6-32 25.6zM358.4-64c-6.4-6.4-19.2-12.8-32-12.8s-19.2 6.4-32 12.8c-6.4 6.4-12.8 19.2-12.8 32s6.4 19.2 12.8 32c12.8 0 25.6 6.4 38.4 6.4 12.8 0 19.2-6.4 32-12.8 6.4-6.4 12.8-19.2 12.8-32-6.4-12.8-12.8-19.2-19.2-25.6zM697.6 512l-345.6 204.8c-6.4 0-6.4 6.4-12.8 6.4-12.8 0-19.2-12.8-19.2-25.6v-422.4c6.4-12.8 19.2-12.8 32-6.4l345.6 204.8c6.4 0 6.4 6.4 6.4 6.4 6.4 12.8 0 25.6-6.4 32zM499.2 409.6l-134.4-83.2v326.4l134.4-83.2 140.8-76.8-140.8-83.2z"  horiz-adv-x="1024" />

    
    <glyph glyph-name="shandongAPPtubiao-06-copy" unicode="&#59234;" d="M0 716.8v-499.2c0-89.6 70.4-160 160-160h230.4v-108.8h-140.8c-12.8 0-25.6-12.8-25.6-25.6s12.8-32 25.6-32h524.8c12.8 0 25.6 12.8 25.6 32 0 12.8-12.8 25.6-25.6 25.6h-128v108.8h224c89.6 0 160 70.4 160 160v499.2c0 89.6-70.4 160-160 160h-704c-96 0-166.4-70.4-166.4-160M76.8 678.4c0 76.8 57.6 134.4 134.4 134.4h608c76.8 0 134.4-57.6 134.4-134.4v-448c0-76.8-57.6-96-134.4-96h-608c-76.8 0-134.4 25.6-134.4 96v448M230.4 320l-44.8 25.6 44.8 64 38.4 6.4 19.2-70.4 102.4 147.2 38.4 6.4 128-115.2 172.8 204.8-32 38.4 121.6 12.8-12.8-128-38.4 38.4-192-217.6h-38.4l-121.6 108.8-96-153.6-38.4-6.4-25.6 76.8-25.6-38.4z"  horiz-adv-x="1030" />

    
    <glyph glyph-name="shandongAPPtubiao-05-copy" unicode="&#59235;" d="M0 716.8v-499.2c0-89.6 70.4-160 160-160h230.4v-108.8h-140.8c-12.8 0-25.6-12.8-25.6-25.6s12.8-32 25.6-32h524.8c12.8 0 25.6 12.8 25.6 32 0 12.8-12.8 25.6-25.6 25.6h-128v108.8h224c89.6 0 160 70.4 160 160v499.2c0 89.6-70.4 160-160 160h-704c-96 0-166.4-70.4-166.4-160M76.8 678.4c0 76.8 57.6 134.4 134.4 134.4h608c76.8 0 134.4-57.6 134.4-134.4v-448c0-76.8-57.6-96-134.4-96h-608c-76.8 0-134.4 25.6-134.4 96v448M230.4 601.6l-44.8-32 44.8-57.6 38.4-6.4 19.2 70.4 102.4-147.2 38.4-6.4 128 115.2 172.8-204.8-32-38.4 121.6-12.8-12.8 128-38.4-44.8-192 224h-38.4l-121.6-108.8-96 147.2-38.4 12.8-25.6-76.8-25.6 38.4z"  horiz-adv-x="1030" />

    
    <glyph glyph-name="column-copy" unicode="&#59236;" d="M230.4 480l-25.6-70.4h-64l51.2-44.8-25.6-76.8 64 44.8 64-44.8-25.6 76.8 57.6 44.8h-70.4l-25.6 70.4zM230.4 755.2l-25.6-64h-64l51.2-44.8-25.6-76.8 64 44.8 64-44.8-25.6 76.8 57.6 44.8h-70.4l-25.6 64zM256 128l-25.6 70.4-25.6-70.4h-64l51.2-38.4-25.6-76.8 64 44.8 64-44.8-25.6 76.8 57.6 38.4h-70.4zM928 896h-832c-51.2 0-96-44.8-96-96v-838.4c0-44.8 44.8-89.6 96-89.6h838.4c51.2 0 96 44.8 96 96v832c-6.4 51.2-51.2 96-102.4 96zM979.2-32c0-25.6-19.2-44.8-44.8-44.8h-838.4c-25.6 0-44.8 19.2-44.8 44.8v832c0 25.6 19.2 44.8 44.8 44.8h838.4c25.6 0 44.8-19.2 44.8-44.8v-832zM864 128h-422.4c-12.8 0-25.6-12.8-25.6-25.6s12.8-25.6 25.6-25.6h416c12.8 0 25.6 12.8 25.6 25.6s-6.4 25.6-19.2 25.6zM864 684.8h-422.4c-12.8 0-25.6-12.8-25.6-25.6 0-6.4 12.8-19.2 25.6-19.2h416c12.8 0 25.6 12.8 25.6 25.6s-6.4 19.2-19.2 19.2zM864 409.6h-422.4c-12.8 0-25.6-12.8-25.6-25.6s12.8-25.6 25.6-25.6h416c12.8 0 25.6 12.8 25.6 25.6s-6.4 25.6-19.2 25.6z"  horiz-adv-x="1030" />

    
    <glyph glyph-name="film-copy" unicode="&#59237;" d="M876.8 896h-729.6c-83.2 0-147.2-64-147.2-147.2v-729.6c0-83.2 64-147.2 147.2-147.2h729.6c83.2 0 147.2 64 147.2 147.2v729.6c0 83.2-64 147.2-147.2 147.2zM844.8 832h44.8c38.4 0 70.4-38.4 70.4-76.8v-115.2h-115.2v192zM844.8 569.6h115.2v-153.6h-115.2v153.6zM960 352v-153.6h-115.2v153.6h115.2zM185.6-57.6h-44.8c-38.4 0-70.4 32-70.4 70.4l-6.4 115.2h121.6v-185.6zM185.6 192h-121.6v160h121.6v-160zM185.6 416h-121.6v153.6h121.6v-153.6zM185.6 640h-121.6v115.2c0 38.4 32 76.8 70.4 76.8h44.8l6.4-192zM774.4-57.6h-531.2v409.6h531.2v-409.6zM774.4 416h-524.8v416h531.2l-6.4-416zM883.2-57.6h-44.8v185.6h121.6v-115.2c0-38.4-32-70.4-76.8-70.4z"  horiz-adv-x="1024" />

    
    <glyph glyph-name="lookback-copy" unicode="&#59238;" d="M883.2-89.6h-665.6c-76.8 0-140.8 64-140.8 140.8v268.8c0 12.8 12.8 25.6 19.2 25.6s25.6-12.8 25.6-25.6v-268.8c0-51.2 44.8-96 96-96h665.6c51.2 0 96 44.8 96 96v665.6c0 51.2-44.8 96-96 96h-665.6c-51.2 0-96-44.8-96-96v-64c0-12.8-12.8-25.6-19.2-25.6s-25.6 12.8-25.6 25.6v64c0 76.8 64 140.8 140.8 140.8h665.6c76.8 0 140.8-64 140.8-140.8v-665.6c0-76.8-64-140.8-140.8-140.8zM192 678.4l-96-166.4-96 166.4zM620.8 172.8c12.8-6.4 25.6 0 25.6 12.8v390.4c0 12.8-19.2 25.6-25.6 12.8l-243.2-192c-6.4-6.4-6.4-19.2 0-25.6l243.2-198.4z"  horiz-adv-x="1024" />

    
    <glyph glyph-name="user-copy" unicode="&#59239;" d="M768 211.2c6.4-6.4 12.8-6.4 19.2-6.4 6.4 0 19.2 6.4 19.2 12.8 6.4 12.8 6.4 32-6.4 38.4-44.8 32-96 57.6-147.2 70.4 32 12.8 57.6 32 83.2 57.6 57.6 57.6 89.6 134.4 89.6 211.2 0 76.8-32 153.6-89.6 211.2-57.6 57.6-134.4 89.6-217.6 89.6s-153.6-32-211.2-89.6c-57.6-51.2-89.6-128-89.6-211.2 0-76.8 32-153.6 89.6-211.2 25.6-25.6 57.6-51.2 96-64-64-19.2-128-57.6-179.2-108.8-83.2-83.2-128-198.4-128-313.6 0-12.8 12.8-25.6 25.6-25.6s25.6 12.8 25.6 25.6c0 217.6 172.8 390.4 390.4 390.4 83.2 0 166.4-25.6 230.4-76.8zM275.2 595.2c0 134.4 108.8 243.2 249.6 243.2 134.4 0 249.6-108.8 249.6-243.2 0-134.4-108.8-243.2-249.6-243.2s-249.6 108.8-249.6 243.2zM921.6 76.8c-12.8 12.8-25.6 12.8-38.4 0l-140.8-140.8-147.2 147.2c-6.4 0-12.8 6.4-12.8 6.4h-12.8c-6.4 0-6.4-6.4-6.4-6.4l-160-160c-12.8-12.8-12.8-25.6 0-38.4 12.8-6.4 19.2-12.8 25.6-12.8 6.4 0 12.8 0 19.2 6.4l140.8 140.8 140.8-140.8c6.4-6.4 12.8-6.4 19.2-6.4h6.4c6.4 0 12.8 6.4 12.8 6.4l160 160c6.4 12.8 6.4 32-6.4 38.4z"  horiz-adv-x="1024" />

    
    <glyph glyph-name="wenti" unicode="&#58905;" d="M957.217391 896H168.546584C76.322981 889.639752 0 813.31677 0 727.453416v-473.838509c0-92.223602 76.322981-168.546584 168.546584-168.546584h251.229814l6.360248-213.068323 251.229814 213.068323h279.850931c92.223602 0 168.546584 76.322981 168.546584 168.546584V727.453416c0 92.223602-73.142857 168.546584-168.546584 168.546584zM559.701863 177.291925c-34.981366 0-66.782609 28.621118-66.782608 63.602485s28.621118 63.602484 66.782608 63.602484c34.981366 0 66.782609-28.621118 66.782609-63.602484s-28.621118-63.602484-66.782609-63.602485z m178.086957 365.714286c-12.720497-19.080745-41.341615-47.701863-82.68323-82.68323-22.26087-19.080745-34.981366-31.801242-41.341615-44.521739-6.360248-9.540373-6.360248-31.801242-6.360248-60.42236h-95.403727v25.440994c0 31.801242 6.360248 54.062112 15.900621 76.322981 9.540373 19.080745 31.801242 41.341615 60.42236 66.782609 28.621118 25.440994 47.701863 41.341615 54.062112 47.701863 9.540373 12.720497 12.720497 25.440994 12.720497 38.161491 0 19.080745-9.540373 38.161491-25.440994 50.881987-15.900621 15.900621-38.161491 22.26087-66.782608 22.26087-25.440994 0-47.701863-6.360248-66.782609-22.26087-19.080745-15.900621-31.801242-47.701863-38.161491-66.782608-3.180124-19.080745-95.403727-28.621118-95.403727 12.720497 0 38.161491 22.26087 82.68323 57.242237 111.304347 34.981366 31.801242 79.503106 44.521739 136.745341 44.52174 60.42236 0 108.124224-15.900621 143.10559-47.701864s54.062112-66.782609 54.062112-108.124223c3.180124-22.26087-3.180124-44.521739-15.900621-63.602485z"  horiz-adv-x="1125" />

    
    <glyph glyph-name="fenxi" unicode="&#59786;" d="M928 832c-52.9 0-96-43.1-96-96 0-25.6 10.1-48.9 26.5-66.2L680.6 319.6c-2.8 0.3-5.7 0.4-8.6 0.4-18.6 0-35.9-5.3-50.7-14.5L442.7 448.4c3.5 9.9 5.3 20.5 5.3 31.6 0 52.9-43.1 96-96 96s-96-43.1-96-96c0-18.6 5.3-35.9 14.5-50.7L127.6 250.7c-9.9 3.5-20.5 5.3-31.6 5.3-52.9 0-96-43.1-96-96s43.1-96 96-96 96 43.1 96 96c0 18.6-5.3 35.9-14.5 50.7l142.9 178.7c9.9-3.5 20.5-5.3 31.6-5.3 18.6 0 35.9 5.3 50.7 14.5l178.7-142.9c-3.5-9.9-5.3-20.5-5.3-31.6 0-52.9 43.1-96 96-96s96 43.1 96 96c0 27-11.2 51.4-29.2 68.9l176.7 347.9c4.1-0.5 8.2-0.8 12.5-0.8 52.9 0 96 43.1 96 96S980.9 832 928 832zM96 128c-17.6 0-32 14.4-32 32s14.4 32 32 32 32-14.4 32-32-14.4-32-32-32z m256 320c-17.6 0-32 14.4-32 32s14.4 32 32 32 32-14.4 32-32-14.4-32-32-32z m320-256c-17.6 0-32 14.4-32 32s14.4 32 32 32 32-14.4 32-32-14.4-32-32-32z m256 512c-17.6 0-32 14.4-32 32s14.4 32 32 32 32-14.4 32-32-14.4-32-32-32zM96 320c17.7 0 32 14.3 32 32V704h608c17.7 0 32 14.3 32 32s-14.3 32-32 32H128c-35.3 0-64-28.7-64-64v-352c0-17.7 14.3-32 32-32zM928 512c-17.7 0-32-14.3-32-32v-480H160c-17.7 0-32-14.3-32-32s14.3-32 32-32h736c35.3 0 64 28.7 64 64V480c0 17.7-14.3 32-32 32z"  horiz-adv-x="1024" />

    
    <glyph glyph-name="fanhui" unicode="&#58916;" d="M710.153924 887.019603L266.007127 435.307476a81.118646 81.118646 0 0 1 0.861532-114.476097l446.192936-441.050666a26.922883 26.922883 0 0 1 37.853573 38.284339L304.722232 359.115718a27.27288 27.27288 0 0 0-0.323074 38.445877L748.545955 849.273722A26.922883 26.922883 0 1 1 710.180847 886.99268z"  horiz-adv-x="1024" />

    


  </font>
</defs>
</svg>
